<?xml version="1.0" standalone="no"?>
<!DOCTYPE svg PUBLIC "-//W3C//DTD SVG 1.1//EN" "http://www.w3.org/Graphics/SVG/1.1/DTD/svg11.dtd" >
<svg>
<metadata>
Created by FontForge 20090622 at Tue Nov  1 15:26:10 2016
 By deploy user
Copyright (c) 2010 by Process Type Foundry. All rights reserved.
</metadata>
<defs>
<font id="LocatorWeb-Medium" horiz-adv-x="656" >
  <font-face 
    font-family="Locator Web Medium"
    font-weight="500"
    font-stretch="normal"
    units-per-em="1000"
    panose-1="2 0 6 0 2 0 0 2 0 4"
    ascent="750"
    descent="-250"
    x-height="487"
    cap-height="666"
    bbox="-48 -276 1201 891"
    underline-thickness="20"
    underline-position="-113"
    unicode-range="U+0020-U+FB02"
  />
<missing-glyph horiz-adv-x="646" 
d="M90 666h466v-666h-466v666zM167 616l340 -527v527h-340zM139 49h339l-339 527v-527z" />
    <glyph glyph-name=".notdef" horiz-adv-x="646" 
d="M90 666h466v-666h-466v666zM167 616l340 -527v527h-340zM139 49h339l-339 527v-527z" />
    <glyph glyph-name=".null" horiz-adv-x="0" 
 />
    <glyph glyph-name="nonmarkingreturn" horiz-adv-x="220" 
 />
    <glyph glyph-name="space" unicode=" " horiz-adv-x="220" 
 />
    <glyph glyph-name="exclam" unicode="!" horiz-adv-x="320" 
d="M189 208h-58l-34 288v170h126v-170zM92 0v141h136v-141h-136z" />
    <glyph glyph-name="quotedbl" unicode="&#x22;" horiz-adv-x="450" 
d="M277 376v290h91v-290h-91zM82 376v290h91v-290h-91z" />
    <glyph glyph-name="numbersign" unicode="#" horiz-adv-x="717" 
d="M662 399h-125l-29 -129h124l-17 -77h-125l-45 -193h-83l45 193h-157l-45 -193h-83l45 193h-125l17 77h125l30 129h-125l17 76h126l44 191h83l-44 -191h157l44 191h83l-44 -191h125zM297 399l-30 -129h158l29 129h-157z" />
    <glyph glyph-name="dollar" unicode="$" horiz-adv-x="619" 
d="M569 183q0 -75 -57 -127.5t-167 -60.5v-94h-85v94q-52 5 -102.5 18t-104.5 35l24 97q63 -21 119.5 -33.5t113.5 -12.5q135 0 135 81q0 18 -6.5 30.5t-23.5 24t-47 24.5t-78 31q-57 22 -97.5 43t-66 45t-37.5 53.5t-12 67.5q0 156 205 171v97h85v-96q47 -2 95 -10t89 -22
l-17 -102q-47 12 -100 19.5t-104 7.5q-37 0 -61.5 -3t-39 -10.5t-20.5 -19.5t-6 -30q0 -19 7.5 -32.5t26.5 -26t51 -26.5t81 -33q53 -21 91 -40.5t62 -42t35.5 -51t11.5 -66.5z" />
    <glyph glyph-name="percent" unicode="%" horiz-adv-x="870" 
d="M813 168q0 -36 -11 -68.5t-32 -56.5t-51 -38.5t-67 -14.5q-38 0 -67.5 14.5t-50.5 38.5t-32 56.5t-11 68.5t11 68t32 56.5t50.5 38.5t67.5 14q37 0 67 -14t51 -38.5t32 -56.5t11 -68zM364 499q0 -36 -11 -68.5t-32 -56.5t-51 -38.5t-67 -14.5q-38 0 -67.5 14.5
t-50.5 38.5t-32 56.5t-11 68.5t11 68t32 56.5t50.5 38.5t67.5 14q37 0 67 -14t51 -38.5t32 -56.5t11 -68zM289 0h-88l366 666h87zM280 499q0 20 -4.5 39t-14 33.5t-24 23.5t-34.5 9t-34.5 -9t-24 -23.5t-14 -33.5t-4.5 -39t4.5 -39t14 -34t24 -24t34.5 -9t34.5 9t24 24
t14 34t4.5 39zM729 168q0 20 -4.5 39t-14 33.5t-24 23.5t-34.5 9t-34.5 -9t-24 -23.5t-14 -33.5t-4.5 -39t4.5 -39t14 -34t24 -24t34.5 -9t34.5 9t24 24t14 34t4.5 39z" />
    <glyph glyph-name="ampersand" unicode="&#x26;" horiz-adv-x="700" 
d="M521 0l-14 17l-16 18.5l-20 24.5q-45 -37 -94.5 -54t-97.5 -17t-89.5 15t-72 42t-48 63.5t-17.5 80.5q0 66 35.5 112.5t108.5 84.5q-32 45 -49 78.5t-17 71.5q0 64 42 101.5t127 37.5q38 0 68 -10.5t51 -28.5t32 -42t11 -51q0 -48 -28.5 -93.5t-93.5 -82.5
q5 -5 20.5 -23.5l36 -42l41.5 -48t37 -41.5q23 35 37.5 75.5t25.5 85.5l90 -23q-11 -57 -33.5 -114t-51.5 -99l51 -59t38 -43l32 -36h-142zM405 136l-46.5 55l-44.5 53l-37 44.5l-24 29.5q-23 -14 -38 -29t-24 -30.5t-12.5 -32t-3.5 -34.5q0 -45 29 -73t80 -28q71 0 121 45z
M364 535q0 26 -16 42.5t-48 16.5q-31 0 -47 -15.5t-16 -43.5q0 -27 16.5 -55.5t39.5 -51.5q40 23 55.5 52t15.5 55z" />
    <glyph glyph-name="quotesingle" unicode="'" horiz-adv-x="255" 
d="M82 376v290h91v-290h-91z" />
    <glyph glyph-name="parenleft" unicode="(" horiz-adv-x="356" 
d="M237 -154q-155 198 -155 458q0 130 38 244t113 214l81 -43q-31 -58 -52 -109t-33.5 -100t-18 -99.5t-5.5 -106.5t5.5 -106.5t18 -99.5t33.5 -100t52 -109z" />
    <glyph glyph-name="parenright" unicode=")" horiz-adv-x="357" 
d="M275 304q0 -260 -155 -458l-78 43q31 58 52 109t34 100t18.5 99.5t5.5 106.5t-5.5 106.5t-18.5 99.5t-34 100t-52 109l82 43q75 -100 113 -214t38 -244z" />
    <glyph glyph-name="asterisk" unicode="*" horiz-adv-x="487" 
d="M395 328l-120 83l13 -146h-89l13 146l-121 -83l-44 77l133 61l-133 60l44 78l121 -84l-13 146h89l-13 -146l120 84l45 -78l-133 -60l133 -61z" />
    <glyph glyph-name="plus" unicode="+" horiz-adv-x="591" 
d="M342 194v-194h-92v194h-193v88h193v195h92v-195h192v-88h-192z" />
    <glyph glyph-name="comma" unicode="," horiz-adv-x="280" 
d="M133 -152h-58l59 152h-67v141h136v-141z" />
    <glyph glyph-name="hyphen" unicode="-" horiz-adv-x="382" 
d="M57 228v102h268v-102h-268z" />
    <glyph glyph-name="period" unicode="." horiz-adv-x="289" 
d="M77 0v141h135v-141h-135z" />
    <glyph glyph-name="slash" unicode="/" horiz-adv-x="498" 
d="M157 -117h-105l289 793h105z" />
    <glyph glyph-name="zero" unicode="0" horiz-adv-x="642" 
d="M587 328q0 -69 -17 -131t-50 -108t-83 -73t-116 -27t-116 27t-83 73t-50 108t-17 131t17 130.5t50 107.5t83 73t116 27t116 -27t83 -73t50 -107.5t17 -130.5zM465 328q0 45 -7.5 86.5t-24.5 74t-44.5 51.5t-67.5 19t-67.5 -19t-45 -51.5t-25 -74t-7.5 -86.5t7.5 -87
t25 -74t45 -51.5t67.5 -19.5t67.5 19.5t44.5 51.5t24.5 74t7.5 87z" />
    <glyph glyph-name="one" unicode="1" horiz-adv-x="440" 
d="M211 0l-1 552l-171 -31l-17 97l189 38h122v-656h-122z" />
    <glyph glyph-name="two" unicode="2" horiz-adv-x="628" 
d="M67 0v40q0 55 12.5 93t40.5 68.5t74 60.5l112 71q34 21 57.5 37.5t38 32t20.5 31.5t6 35q0 46 -35 68t-115 22q-42 0 -89 -7t-94 -18l-20 99q25 8 53.5 14.5t57 10.5t56 6t51.5 2q128 0 193 -53t65 -139q0 -34 -10 -62.5t-30.5 -54t-50.5 -49.5t-70 -49l-72.5 -46
t-55.5 -38t-36.5 -34.5t-16.5 -33.5h347v-107h-489z" />
    <glyph glyph-name="three" unicode="3" horiz-adv-x="572" 
d="M520 188q0 -41 -20 -77t-56.5 -63t-89.5 -43t-119 -16q-98 0 -188 34l23 95q43 -13 80.5 -19t84.5 -6q76 0 118.5 26.5t42.5 74.5q0 41 -33 68t-111 27h-115v99h110q60 0 90.5 24.5t30.5 66.5q0 40 -38 63t-105 23q-37 0 -70.5 -5.5t-75.5 -18.5l-22 93q44 16 90.5 24
t87.5 8q55 0 101.5 -11.5t80.5 -33.5t53 -54.5t19 -74.5q0 -41 -22 -81t-70 -66q58 -19 90.5 -62t32.5 -95z" />
    <glyph glyph-name="four" unicode="4" horiz-adv-x="636" 
d="M491 152v-152h-118v152h-338v107l325 397h131v-403h98v-101h-98zM373 520l-219 -267h219v267z" />
    <glyph glyph-name="five" unicode="5" horiz-adv-x="618" 
d="M563 212q0 -44 -17 -84.5t-50.5 -71t-84.5 -49t-119 -18.5q-60 0 -119.5 13t-110.5 35l29 95q30 -10 55.5 -17t49 -11.5t47 -7t49.5 -2.5q37 0 65 9t47 24.5t28 36.5t9 44q0 48 -32.5 76t-94.5 28q-31 0 -61 -6.5t-61 -23.5l-99 52q7 69 14 131l6 53.5l6 53l5.5 47.5
t4.5 37h395v-107h-292l-17 -159q27 13 60 19.5t67 6.5q53 0 94.5 -15.5t69.5 -43t42.5 -65t14.5 -80.5z" />
    <glyph glyph-name="six" unicode="6" horiz-adv-x="607" 
d="M550 207q0 -44 -17 -83.5t-48.5 -69.5t-75 -47.5t-97.5 -17.5q-127 0 -194.5 78t-67.5 214q0 87 23.5 158t67 121.5t106 78t141.5 27.5q33 0 69 -4.5t66 -13.5l-18 -100q-51 13 -103 13q-57 0 -97 -15.5t-67 -44t-41.5 -69t-20.5 -89.5q29 31 67.5 48.5t95.5 17.5
q47 0 86 -15.5t66.5 -42.5t43 -64t15.5 -80zM428 202q0 50 -33.5 78t-88.5 28q-28 0 -51.5 -8t-41 -22.5t-27 -34t-9.5 -42.5q0 -50 36 -79t90 -29q30 0 53.5 9t39 24t24 35t8.5 41z" />
    <glyph glyph-name="seven" unicode="7" horiz-adv-x="530" 
d="M235 0h-123l267 549h-342v107h466v-107z" />
    <glyph glyph-name="eight" unicode="8" horiz-adv-x="602" 
d="M555 193q0 -42 -17 -79t-49.5 -64.5t-79.5 -44t-107 -16.5t-107.5 16.5t-80 44t-50 64.5t-17.5 79q0 52 29.5 94.5t83.5 68.5q-35 24 -56.5 59t-21.5 77q0 40 16 72.5t45 55t69.5 34.5t89.5 12t89 -12t69 -34.5t45 -55t16 -72.5q0 -42 -21.5 -77t-56.5 -59
q54 -26 83 -68.5t29 -94.5zM434 193q0 19 -8 37t-24.5 32.5t-41 23t-58.5 8.5t-59 -8.5t-41.5 -23t-25 -32.5t-8.5 -37q0 -45 37 -74t97 -29t96 29t36 74zM406 479q0 38 -26.5 64t-77.5 26t-78.5 -26t-27.5 -64q0 -42 29.5 -68t75.5 -26h1q46 0 75 26t29 68z" />
    <glyph glyph-name="nine" unicode="9" horiz-adv-x="607" 
d="M550 374q0 -87 -23.5 -158t-67.5 -121.5t-106.5 -78t-141.5 -27.5q-33 0 -68 4.5t-65 13.5l16 99q26 -7 51.5 -9.5t51.5 -2.5q57 0 97 15.5t67 43.5t41.5 68t20.5 90q-28 -31 -66.5 -48t-95.5 -17q-47 0 -86 15.5t-67 43t-43 64.5t-15 80q0 44 17.5 83.5t49 69t75.5 47
t97 17.5q127 0 194 -78t67 -214zM422 454q0 50 -35.5 79t-89.5 29q-30 0 -53.5 -9t-39 -24.5t-24 -35.5t-8.5 -41q0 -50 33.5 -77.5t88.5 -27.5q57 0 92.5 30.5t35.5 76.5z" />
    <glyph glyph-name="colon" unicode=":" horiz-adv-x="289" 
d="M77 0v141h135v-141h-135zM77 337v140h135v-140h-135z" />
    <glyph glyph-name="semicolon" unicode=";" horiz-adv-x="285" 
d="M138 -152h-58l59 152h-67v141h136v-141zM72 337v140h136v-140h-136z" />
    <glyph glyph-name="less" unicode="&#x3c;" horiz-adv-x="562" 
d="M27 210v64l483 220v-93l-358 -159l358 -159v-93z" />
    <glyph glyph-name="equal" unicode="=" horiz-adv-x="561" 
d="M52 293v93h457v-93h-457zM52 76v93h457v-93h-457z" />
    <glyph glyph-name="greater" unicode="&#x3e;" horiz-adv-x="562" 
d="M52 -11v93l358 160l-358 159v93l483 -220v-65z" />
    <glyph glyph-name="question" unicode="?" horiz-adv-x="560" 
d="M508 492q0 -70 -53.5 -139.5t-166.5 -151.5l-54 74l64 60.5t47.5 50t29.5 47t10 53.5q0 43 -31 63t-102 20q-41 0 -90.5 -6.5t-94.5 -18.5l-20 97q27 8 56 14.5t57.5 11t55.5 7t50 2.5q119 0 180.5 -48t61.5 -136zM201 0v140h136v-140h-136z" />
    <glyph glyph-name="at" unicode="@" horiz-adv-x="759" 
d="M729 48q-60 -28 -136 -43.5t-153 -15.5t-145 25t-118.5 70.5t-80 108.5t-29.5 140q0 76 23 139t64 108.5t98 70.5t125 25q50 0 89 -14t66 -38.5t41.5 -59.5t14.5 -77v-313h-79v43q-39 -49 -96 -49q-35 0 -61 14t-44 37.5t-27 53.5t-9 62q0 30 9 60t27 53.5t44 38t61 14.5
q34 0 59 -13t42 -34v29q0 54 -32 88.5t-105 34.5q-56 0 -99.5 -20t-73.5 -56t-45.5 -86t-15.5 -111q0 -59 19.5 -109.5t57.5 -88t93.5 -58.5t126.5 -21q67 0 133 12.5t135 38.5zM510 335q0 46 -22 74t-57 28q-38 0 -57.5 -29.5t-19.5 -72.5t19.5 -72.5t57.5 -29.5
q36 0 57.5 28t21.5 74z" />
    <glyph glyph-name="A" unicode="A" 
d="M518 0l-57 149h-266l-57 -149h-126l259 666h114l259 -666h-126zM328 535l-101 -289h202z" />
    <glyph glyph-name="B" unicode="B" horiz-adv-x="663" 
d="M628 190q0 -36 -14 -70t-39.5 -61t-62 -43t-81.5 -16h-339v666h307q99 0 152.5 -47t53.5 -125q0 -20 -5.5 -41t-17.5 -40.5t-32 -36t-49 -26.5q33 -10 57 -27t39.5 -38.5t23 -46t7.5 -48.5zM500 196q0 42 -25.5 68.5t-79.5 26.5h-179v-189h179q52 0 78.5 25.5t26.5 68.5z
M478 478q0 43 -27.5 65t-79.5 22h-155v-178h154q51 0 79.5 24t28.5 67z" />
    <glyph glyph-name="C" unicode="C" horiz-adv-x="653" 
d="M596 18q-44 -16 -89 -22.5t-95 -6.5q-81 0 -149 25.5t-117 71.5t-76.5 109t-27.5 138t27.5 138t76.5 108.5t117 71t149 25.5q55 0 99 -6.5t85 -20.5l-25 -105q-72 19 -143 19q-63 0 -111 -17t-81 -47t-49.5 -72.5t-16.5 -93.5t16.5 -93.5t49.5 -73t81 -47.5t111 -17
q19 0 36 0.5t33.5 2.5t34 5.5t39.5 9.5l25 -102v0z" />
    <glyph glyph-name="D" unicode="D" horiz-adv-x="693" 
d="M661 333q0 -73 -30.5 -134t-85.5 -105.5t-132.5 -69t-170.5 -24.5h-150v666h150q93 0 170.5 -25t132.5 -69t85.5 -105t30.5 -134zM528 333q0 57 -21.5 98.5t-57.5 68.5t-83.5 40t-99.5 13h-46v-440h46q52 0 99.5 13t83.5 40t57.5 68.5t21.5 98.5z" />
    <glyph glyph-name="E" unicode="E" horiz-adv-x="632" 
d="M92 0v666h478v-110h-350v-157h329v-110h-329v-179h350v-110h-478z" />
    <glyph glyph-name="F" unicode="F" horiz-adv-x="626" 
d="M220 556v-157h335v-110h-335v-289h-128v666h497v-110h-369z" />
    <glyph glyph-name="G" unicode="G" horiz-adv-x="700" 
d="M635 18q-63 -16 -118 -22.5t-100 -6.5q-86 0 -155.5 27t-118.5 73.5t-75 109t-26 133.5q0 76 28 139.5t77.5 109t118 70.5t149.5 25q48 0 96 -5.5t92 -16.5l-17 -106q-38 6 -74 10.5t-83 4.5q-127 0 -193 -60t-66 -171q0 -50 16.5 -92.5t47 -73t74.5 -47.5t99 -17
q16 0 29 0.5t25.5 1.5t25.5 2.5l29 3.5v223h119v-315v0z" />
    <glyph glyph-name="H" unicode="H" horiz-adv-x="751" 
d="M531 0v281h-312v-281h-127v666h127v-272h312v272h128v-666h-128z" />
    <glyph glyph-name="I" unicode="I" horiz-adv-x="322" 
d="M97 0v666h128v-666h-128z" />
    <glyph glyph-name="J" unicode="J" horiz-adv-x="452" 
d="M370 207q0 -48 -12.5 -86.5t-39 -66t-67 -42.5t-96.5 -15h-100v100h97q50 0 70 30.5t20 80.5v353h-171v105h299v-459v0z" />
    <glyph glyph-name="K" unicode="K" horiz-adv-x="688" 
d="M507 0l-287 284v-284h-128v666h128v-268l271 268h169l-337 -323l353 -343h-169z" />
    <glyph glyph-name="L" unicode="L" horiz-adv-x="570" 
d="M92 0v666h128v-556h328v-110h-456z" />
    <glyph glyph-name="M" unicode="M" horiz-adv-x="862" 
d="M647 0v440l-181 -326h-71l-180 327v-441h-123v666h123l216 -386l216 386h123v-666h-123z" />
    <glyph glyph-name="N" unicode="N" horiz-adv-x="767" 
d="M550 0l-333 464v-464h-125v666h125l332 -464v464h126v-666h-125z" />
    <glyph glyph-name="O" unicode="O" horiz-adv-x="750" 
d="M708 332q0 -71 -25.5 -133.5t-70 -109t-105.5 -73.5t-132 -27t-132 27t-105.5 73.5t-70 109t-25.5 133.5t25.5 133.5t70 109.5t105.5 74t132 27t132 -27t105.5 -74t70 -109.5t25.5 -133.5zM581 332q0 49 -14 91.5t-41 73.5t-65 48.5t-86 17.5t-86 -17.5t-64.5 -48.5
t-40.5 -73.5t-14 -91.5q0 -50 14 -92t40.5 -72.5t64.5 -48t86 -17.5t86 17.5t65 48t41 72.5t14 92z" />
    <glyph glyph-name="P" unicode="P" horiz-adv-x="671" 
d="M649 454q0 -42 -15.5 -81t-44.5 -68t-69.5 -46.5t-89.5 -17.5h-211v-241h-127v666h338q49 0 89.5 -17t69.5 -46.5t44.5 -68t15.5 -80.5zM519 454q0 24 -8.5 44t-23.5 34.5t-34.5 22.5t-41.5 8h-192v-219h192q23 0 42.5 8.5t34 23t23 34.5t8.5 44z" />
    <glyph glyph-name="Q" unicode="Q" horiz-adv-x="751" 
d="M709 333q0 -63 -20 -119.5t-56 -101.5t-86 -75.5t-110 -41.5v-183h-124v183q-60 11 -109.5 41.5t-85.5 75.5t-56 101.5t-20 119.5q0 71 25.5 133.5t70 109t105.5 73.5t132 27t132 -27t106 -73.5t70.5 -109t25.5 -133.5zM581 333q0 49 -14 91.5t-41 73t-65 48t-86 17.5
t-86 -17.5t-64.5 -48t-40.5 -73t-14 -91.5q0 -50 14 -92t40.5 -73t64.5 -48.5t86 -17.5t86 17.5t65 48.5t41 73t14 92z" />
    <glyph glyph-name="R" unicode="R" horiz-adv-x="745" 
d="M566 0l-183 252h-163v-252h-128v666h347q48 0 87.5 -17t68 -45.5t44 -66t15.5 -79.5q0 -62 -34.5 -113.5t-95.5 -74.5l199 -270h-157zM523 458q0 48 -31.5 76t-75.5 28h-196v-210h196q46 0 76.5 29t30.5 77z" />
    <glyph glyph-name="S" unicode="S" horiz-adv-x="650" 
d="M605 182q0 -44 -20 -80t-56 -61t-86.5 -38.5t-111.5 -13.5q-33 0 -69.5 4t-73 11t-71 17t-62.5 23l28 99q63 -22 125.5 -34t120.5 -12q71 0 110 20.5t39 60.5q0 17 -7.5 29.5t-27 24.5t-52.5 25l-83 32q-60 22 -103 42.5t-70.5 44.5t-40.5 53.5t-13 71.5q0 89 65 132
t201 43q27 0 59 -2.5t64 -6.5t62 -10t55 -13l-19 -103q-48 11 -107.5 18t-111.5 7q-77 0 -109 -13.5t-32 -48.5q0 -19 9 -32.5t30 -26.5t57 -27.5l90 -35.5q57 -23 97.5 -41t65.5 -39.5t36.5 -49.5t11.5 -70z" />
    <glyph glyph-name="T" unicode="T" horiz-adv-x="594" 
d="M361 555v-555h-127v555h-222v111h570v-111h-221z" />
    <glyph glyph-name="U" unicode="U" horiz-adv-x="745" 
d="M663 266q0 -55 -20.5 -105t-58 -88.5t-91 -61t-120.5 -22.5t-120.5 22.5t-91.5 61t-58.5 88.5t-20.5 105v400h128v-401q0 -38 12 -68t34 -51t51.5 -32t65.5 -11t65.5 11t51.5 32t34 51t12 68v401h127v-400v0z" />
    <glyph glyph-name="V" unicode="V" horiz-adv-x="626" 
d="M377 0h-127l-242 666h128l177 -511l177 511h128z" />
    <glyph glyph-name="W" unicode="W" horiz-adv-x="865" 
d="M680 0h-102l-146 458l-145 -458h-102l-170 666h126l108 -433l138 433h91l138 -433l108 433h126z" />
    <glyph glyph-name="X" unicode="X" horiz-adv-x="635" 
d="M486 0l-168 238l-170 -238h-141l239 336l-235 330h141l166 -232l165 232h142l-237 -330l240 -336h-142z" />
    <glyph glyph-name="Y" unicode="Y" horiz-adv-x="607" 
d="M368 264v-264h-128v264l-238 402h129l173 -289l172 289h129z" />
    <glyph glyph-name="Z" unicode="Z" horiz-adv-x="644" 
d="M52 0v114l388 442h-378v110h530v-113l-386 -443h396v-110h-550z" />
    <glyph glyph-name="bracketleft" unicode="[" horiz-adv-x="342" 
d="M92 -126v916h238v-98h-114v-719h114v-99h-238z" />
    <glyph glyph-name="backslash" unicode="\" horiz-adv-x="498" 
d="M341 -117l-289 793h105l289 -793h-105z" />
    <glyph glyph-name="bracketright" unicode="]" horiz-adv-x="342" 
d="M12 -126v99h114v719h-114v98h238v-916h-238z" />
    <glyph glyph-name="asciicircum" unicode="^" horiz-adv-x="472" 
d="M349 327l-113 241l-113 -241h-96l171 339h76l171 -339h-96z" />
    <glyph glyph-name="underscore" unicode="_" horiz-adv-x="458" 
d="M0 -54v43h458v-43h-458z" />
    <glyph glyph-name="grave" unicode="`" horiz-adv-x="328" 
d="M185 551l-138 130h126l93 -130h-81z" />
    <glyph glyph-name="a" unicode="a" horiz-adv-x="511" 
d="M344 0v54q-24 -30 -59 -46t-86 -16q-37 0 -67 10.5t-51.5 30t-33.5 46t-12 58.5q0 69 41.5 105.5t116.5 36.5h146v41q0 40 -25 60t-92 20q-38 0 -74 -3t-76 -8l-10 90q39 8 83.5 12.5t87.5 4.5q108 0 168 -44t60 -135v-317h-117zM339 199h-106q-37 0 -56.5 -14t-19.5 -47
q0 -59 76 -59q49 0 77.5 28t28.5 74v18z" />
    <glyph glyph-name="b" unicode="b" horiz-adv-x="584" 
d="M552 244q0 -46 -13.5 -91t-40.5 -81t-66.5 -58t-91.5 -22q-45 0 -83 22t-64 57v-71h-123v666h123v-248q56 78 147 78q52 0 92 -21.5t66.5 -57t40 -80.5t13.5 -93zM429 244q0 32 -7.5 60.5t-22 49.5t-36.5 33.5t-51 12.5q-56 0 -87.5 -43.5t-31.5 -112.5q0 -34 8.5 -62.5
t24 -49.5t37.5 -32.5t49 -11.5q29 0 51 12.5t36.5 33.5t22 49.5t7.5 60.5z" />
    <glyph glyph-name="c" unicode="c" horiz-adv-x="478" 
d="M428 15q-26 -10 -61.5 -16.5t-65.5 -6.5q-61 0 -110.5 19.5t-85 53.5t-54.5 80t-19 99t19 99t54.5 80t85 53.5t110.5 19.5q34 0 65.5 -5t61.5 -16l-20 -88q-26 6 -50.5 8.5t-46.5 2.5q-80 0 -118.5 -42.5t-38.5 -111.5q0 -68 38.5 -111.5t118.5 -43.5q26 0 47.5 3.5
t49.5 11.5l20 -89v0z" />
    <glyph glyph-name="d" unicode="d" horiz-adv-x="584" 
d="M391 0v71q-26 -35 -64 -57t-83 -22q-52 0 -91.5 22t-66.5 58t-40.5 81t-13.5 91q0 48 13.5 93t40 80.5t66 57t92.5 21.5q91 0 147 -78v248h123v-666h-123zM391 244q0 69 -31.5 112.5t-87.5 43.5q-29 0 -51 -12.5t-36.5 -33.5t-22 -49.5t-7.5 -60.5t7.5 -60.5t22 -49.5
t36.5 -33.5t51 -12.5q27 0 49 11.5t37.5 32.5t24 49.5t8.5 62.5z" />
    <glyph glyph-name="e" unicode="e" horiz-adv-x="534" 
d="M151 204q2 -55 45 -85.5t111 -30.5q35 0 72 5t71 14l22 -88q-42 -14 -81.5 -20.5t-84.5 -6.5q-66 0 -117 18.5t-86 51.5t-53 79.5t-18 102.5q0 50 16 96t47 80.5t74.5 55t99.5 20.5q53 0 95 -18.5t71.5 -52.5t45 -80.5t15.5 -103.5v-37h-345zM380 290q-5 53 -32.5 82.5
t-78.5 29.5q-48 0 -79 -28t-38 -84h228z" />
    <glyph glyph-name="f" unicode="f" horiz-adv-x="358" 
d="M339 590q-15 3 -29.5 4t-27.5 1q-35 0 -49.5 -16t-14.5 -52v-47h94v-83h-94v-397h-122v397h-66v83h66v43q0 88 42 128t118 40q47 0 97 -14z" />
    <glyph glyph-name="g" unicode="g" horiz-adv-x="579" 
d="M514 57q0 -111 -71 -170.5t-195 -59.5q-32 0 -75.5 4t-89.5 18l16 84q41 -9 73 -13t62 -4q88 0 123 32.5t35 92.5v39q-26 -35 -65.5 -53.5t-84.5 -18.5q-52 0 -91 20.5t-65.5 54.5t-40 77.5t-13.5 90.5q0 48 13.5 92.5t40 78.5t65.5 54t91 20q45 0 83 -19t67 -59v69h122
v-430zM392 245q0 71 -32 113t-88 42q-59 0 -88 -42.5t-29 -106.5t29 -106t88 -42q55 0 87.5 35.5t32.5 106.5z" />
    <glyph glyph-name="h" unicode="h" horiz-adv-x="580" 
d="M393 0v291q0 45 -20 70.5t-66 25.5q-21 0 -41.5 -8.5t-37 -24t-26.5 -37t-10 -46.5v-271h-122v666h119v-256q23 35 67.5 60.5t98.5 25.5q82 0 121 -51.5t39 -135.5v-309h-122z" />
    <glyph glyph-name="i" unicode="i" horiz-adv-x="262" 
d="M70 0v487h122v-487h-122zM70 568v117h122v-117h-122z" />
    <glyph glyph-name="j" unicode="j" horiz-adv-x="271" 
d="M206 -13q0 -42 -11.5 -72t-32.5 -49.5t-49.5 -29t-62.5 -9.5q-6 0 -15.5 0.5t-20 1t-20.5 1.5t-16 2l2 96q11 -2 23.5 -3t24.5 -1q34 0 45 17.5t11 58.5v487h122v-500zM84 568v117h122v-117h-122z" />
    <glyph glyph-name="k" unicode="k" horiz-adv-x="542" 
d="M388 0l-196 198v-198h-122v666h122v-367l185 188h146l-236 -239l245 -248h-144z" />
    <glyph glyph-name="l" unicode="l" horiz-adv-x="326" 
d="M288 -4q-4 -1 -13.5 -1.5l-19.5 -1l-19.5 -1t-13.5 -0.5q-34 0 -62.5 9t-49.5 28.5t-33 49.5t-12 72v515h122v-502q0 -42 12 -58t45 -16h22.5t21.5 1v-95v0z" />
    <glyph glyph-name="m" unicode="m" horiz-adv-x="891" 
d="M704 0v291q0 45 -20 70.5t-66 25.5q-21 0 -40.5 -8.5t-34.5 -24t-24.5 -37t-9.5 -46.5v-271h-122v291q0 45 -20.5 70.5t-66.5 25.5q-21 0 -40.5 -8.5t-34.5 -24t-24 -37t-9 -46.5v-271h-122v487h120v-77q23 35 64.5 60.5t95.5 25.5t89 -23t52 -64q12 17 30.5 32.5
t41.5 27.5t49.5 19.5t53.5 7.5q82 0 121 -51.5t39 -135.5v-309h-122z" />
    <glyph glyph-name="n" unicode="n" horiz-adv-x="581" 
d="M394 0v291q0 45 -21 70.5t-67 25.5q-21 0 -41 -8.5t-36.5 -24t-26.5 -37t-10 -46.5v-271h-122v487h119v-77q23 35 67.5 60.5t98.5 25.5q82 0 121.5 -51.5t39.5 -135.5v-309h-122z" />
    <glyph glyph-name="o" unicode="o" horiz-adv-x="559" 
d="M527 244q0 -50 -18 -96t-50.5 -80.5t-78.5 -55t-101 -20.5q-56 0 -101.5 20.5t-77.5 55t-50 80.5t-18 96t18 96t50 80.5t77.5 55t101.5 20.5q55 0 101 -20.5t78.5 -55t50.5 -80.5t18 -96zM405 244q0 71 -33.5 114t-92.5 43t-91.5 -43t-32.5 -114t32.5 -113.5t91.5 -42.5
t92.5 42.5t33.5 113.5z" />
    <glyph glyph-name="p" unicode="p" horiz-adv-x="588" 
d="M556 244q0 -48 -13.5 -93t-39.5 -80.5t-66 -57t-92 -21.5q-92 0 -148 78v-235h-123v652h123v-70q26 35 64.5 57t83.5 22q52 0 91.5 -22t66 -58t40 -81t13.5 -91zM433 244q0 32 -7.5 60.5t-22 49.5t-36.5 33.5t-51 12.5q-27 0 -49 -11.5t-37.5 -32.5t-24 -49.5t-8.5 -62.5
q0 -69 31.5 -112.5t87.5 -43.5q29 0 51 12.5t36.5 33.5t22 49.5t7.5 60.5z" />
    <glyph glyph-name="q" unicode="q" horiz-adv-x="583" 
d="M391 -165v235q-56 -78 -148 -78q-53 0 -92.5 21.5t-65.5 57t-39.5 80.5t-13.5 93q0 46 13.5 91t40 81t66 58t91.5 22q45 0 83.5 -22t64.5 -57v70h122v-652h-122zM391 244q0 34 -8.5 62.5t-24 49.5t-37.5 32.5t-49 11.5q-29 0 -51 -12.5t-37 -33.5t-22.5 -49.5t-7.5 -60.5
t7.5 -60.5t22.5 -49.5t37 -33.5t51 -12.5q56 0 87.5 43.5t31.5 112.5z" />
    <glyph glyph-name="r" unicode="r" horiz-adv-x="377" 
d="M355 381q-81 0 -122 -45.5t-41 -118.5v-217h-122v487h119v-88q8 17 24.5 34t39 31t49 23t53.5 9v-115v0z" />
    <glyph glyph-name="s" unicode="s" horiz-adv-x="480" 
d="M443 137q0 -33 -14.5 -59.5t-41.5 -45.5t-64.5 -29.5t-83.5 -10.5q-48 0 -101 12t-98 32l27 85q45 -16 89 -25.5t82 -9.5q48 0 67 13t19 33q0 11 -4 18.5t-14.5 14.5t-28.5 15t-46 19q-49 20 -82 36t-53.5 33.5t-29 39t-8.5 52.5q0 69 50.5 102.5t146.5 33.5
q18 0 39.5 -1.5t44 -4.5t45 -8t42.5 -12l-21 -89q-30 8 -71 14.5t-77 6.5q-48 0 -65 -9t-17 -29q0 -12 5 -20.5t17.5 -16t33.5 -16l53 -21.5q46 -18 76.5 -32.5t49 -31t26 -37.5t7.5 -52z" />
    <glyph glyph-name="t" unicode="t" horiz-adv-x="352" 
d="M312 0q-13 -3 -32.5 -5.5t-37.5 -2.5q-33 0 -61.5 8t-49 26t-32 46t-11.5 68v265h-64v82h64v137h122v-137h88v-82h-88v-257q0 -38 16 -50t40 -12q6 0 16.5 1t18.5 3l11 -90v0z" />
    <glyph glyph-name="u" unicode="u" horiz-adv-x="579" 
d="M389 0v78q-23 -35 -67 -60.5t-98 -25.5q-83 0 -122 51t-39 135v309h122v-290q0 -45 20.5 -70.5t66.5 -25.5q21 0 41 8.5t36.5 23.5t26.5 36t10 47v271h123v-487h-120z" />
    <glyph glyph-name="v" unicode="v" horiz-adv-x="501" 
d="M311 0h-121l-182 487h119l124 -361l124 361h118z" />
    <glyph glyph-name="w" unicode="w" horiz-adv-x="708" 
d="M563 0h-118l-91 340l-93 -340h-118l-138 487h113l88 -348l94 348h107l93 -347l88 347h115z" />
    <glyph glyph-name="x" unicode="x" horiz-adv-x="496" 
d="M355 0l-107 155l-106 -155h-127l170 248l-166 239h127l102 -152l103 152h127l-167 -239l170 -248h-126z" />
    <glyph glyph-name="y" unicode="y" horiz-adv-x="494" 
d="M244 -165h-118l62 166l-186 486h119l125 -355l122 355h119z" />
    <glyph glyph-name="z" unicode="z" horiz-adv-x="540" 
d="M60 0v92l272 303h-251v92h399v-91l-276 -303h281v-93h-425z" />
    <glyph glyph-name="braceleft" unicode="{" horiz-adv-x="323" 
d="M207 -143q-30 0 -51.5 9.5t-34.5 25.5t-19 37t-6 44v236q0 38 -12 54.5t-41 16.5h-16v88h16q29 0 41 17t12 55v235q0 23 6 44t19 36.5t34.5 25t51.5 9.5h112v-89h-56q-24 0 -33.5 -13t-9.5 -37v-196q0 -54 -31 -91.5t-98 -39.5q67 -2 98 -39.5t31 -91.5v-197
q0 -24 9.5 -36.5t33.5 -12.5h56v-90h-112z" />
    <glyph glyph-name="bar" unicode="|" horiz-adv-x="293" 
d="M102 -200v1000h89v-1000h-89z" />
    <glyph glyph-name="braceright" unicode="}" horiz-adv-x="327" 
d="M299 280h-16q-29 0 -40.5 -16.5t-11.5 -54.5v-236q0 -23 -6 -44t-19 -37t-34.5 -25.5t-51.5 -9.5h-113v90h57q24 0 33.5 12.5t9.5 36.5v197q0 27 7.5 50.5t23 41t39.5 28t58 11.5q-34 1 -58 11.5t-39.5 28t-23 41t-7.5 50.5v196q0 24 -9.5 37t-33.5 13h-57v89h113
q30 0 51.5 -9.5t34.5 -25t19 -36.5t6 -44v-235q0 -38 11.5 -55t40.5 -17h17z" />
    <glyph glyph-name="asciitilde" unicode="~" horiz-adv-x="490" 
d="M468 349q-8 -23 -20 -49t-29.5 -48.5t-40 -37t-50.5 -14.5q-29 0 -53 12.5t-45 27.5l-40 27.5t-38 12.5q-14 0 -25.5 -8t-20.5 -20t-15.5 -26l-11.5 -25l-57 27q7 23 19.5 49t30 48.5t40 37t50.5 14.5q29 0 53 -12.5t45 -27l40 -27t38 -12.5q14 0 25.5 8t20.5 20t16 26
t12 25l56 -28v0z" />
    <glyph glyph-name="nonbreakingspace" unicode="&#xa0;" horiz-adv-x="220" 
 />
    <glyph glyph-name="exclamdown" unicode="&#xa1;" horiz-adv-x="320" 
d="M97 0v170l33 288h59l34 -288v-170h-126zM92 526v140h136v-140h-136z" />
    <glyph glyph-name="cent" unicode="&#xa2;" horiz-adv-x="478" 
d="M428 15q-29 -11 -60.5 -16.5t-60.5 -6.5v-62h-24v63q-57 3 -103.5 23.5t-79 54t-50.5 78t-18 95.5t18 95.5t50.5 78t79 54t103.5 23.5v63h24v-62q32 -1 61.5 -6t59.5 -17l-20 -88q-26 8 -48 10.5t-47 2.5h-6v-306q1 0 2 -1.5t3 -1.5q25 0 46.5 3.5t49.5 11.5zM283 397
q-66 -8 -97.5 -49.5t-31.5 -103.5t31.5 -103t97.5 -49v305z" />
    <glyph glyph-name="sterling" unicode="&#xa3;" horiz-adv-x="694" 
d="M603 539q-45 12 -102 19.5t-108 7.5q-77 0 -109.5 -15t-32.5 -53q0 -33 10 -66t27 -81h203v-68h-192v-5q1 -35 -6.5 -82t-33.5 -94h339v-102h-531v102h64q40 92 40 178v3h-93v68h83q-16 39 -26.5 74t-10.5 70q0 88 64.5 134.5t198.5 46.5q56 0 120 -8t115 -25z" />
    <glyph glyph-name="currency" unicode="&#xa4;" horiz-adv-x="718" 
d="M643 543q-43 11 -77.5 15.5t-74.5 4.5q-95 0 -156 -38t-85 -102h179v-56h-193q-1 -8 -1.5 -16.5t-0.5 -17.5v-18t2 -18h193v-57h-178q25 -63 85.5 -100.5t154.5 -37.5q39 0 73.5 4.5t78.5 15.5l17 -104q-42 -14 -86 -21.5t-98 -7.5q-68 0 -126 19t-104.5 52.5t-79 79.5
t-47.5 100h-97v57h86q-1 9 -1.5 18t-0.5 18q0 8 0.5 17t1.5 17h-86v56h96q15 55 47.5 101t79 80t105 53t126.5 19q27 0 50.5 -1.5t45.5 -4.5t43.5 -8.5t45.5 -12.5z" />
    <glyph glyph-name="yen" unicode="&#xa5;" horiz-adv-x="607" 
d="M438 384h94v-72h-135l-30 -48v-28h165v-72h-165v-164h-127v164h-165v72h165v28l-28 48h-137v72h95l-168 282h129l173 -289l172 289h129z" />
    <glyph glyph-name="brokenbar" unicode="&#xa6;" horiz-adv-x="293" 
d="M102 387v413h89v-413h-89zM102 -200v413h89v-413h-89z" />
    <glyph glyph-name="section" unicode="&#xa7;" horiz-adv-x="570" 
d="M518 -8q0 -39 -17.5 -69.5t-48.5 -51.5t-74.5 -32.5t-95.5 -11.5q-55 0 -115 12.5t-115 35.5l24 89q52 -18 103.5 -29t100.5 -11q58 0 91.5 15.5t33.5 51.5q0 15 -7 25t-23.5 19.5t-45 20l-71.5 27.5q-48 18 -82.5 36.5t-57 40.5t-33 49t-10.5 62q0 44 21.5 74t53.5 49
q-40 24 -57.5 54t-17.5 75q0 153 226 153q47 0 100.5 -6.5t98.5 -21.5l-16 -93q-38 11 -87 17t-93 6q-63 0 -90 -12.5t-27 -41.5q0 -15 7 -25.5t24 -21t45.5 -22l70.5 -28.5q49 -19 83.5 -35t57 -34.5t33 -42t10.5 -57.5q0 -37 -20.5 -73.5t-60.5 -62.5q21 -11 36.5 -23.5
t25.5 -27.5t14.5 -34.5t4.5 -44.5zM405 252q0 14 -6.5 24t-22.5 19.5t-43 20l-67 26.5q-6 2 -12.5 4.5t-12.5 4.5q-23 -11 -38 -31.5t-15 -45.5q0 -15 5.5 -27t19 -23t36 -22t56.5 -24l30 -12q30 11 50 35.5t20 50.5z" />
    <glyph glyph-name="dieresis" unicode="&#xa8;" horiz-adv-x="403" 
d="M242 560v100h99v-100h-99zM62 560v100h98v-100h-98z" />
    <glyph glyph-name="copyright" unicode="&#xa9;" horiz-adv-x="739" 
d="M705 333q0 -71 -25 -133.5t-70 -109t-106.5 -74t-133.5 -27.5t-133.5 27.5t-106.5 74t-70.5 109t-25.5 133.5q0 70 25.5 132.5t70.5 109.5t106.5 74t133.5 27t133.5 -27t106.5 -74t70 -109.5t25 -132.5zM653 333q0 57 -20.5 110.5t-57.5 94t-89 65t-116 24.5t-116 -24.5
t-89.5 -65t-58 -94t-20.5 -110.5t20.5 -110.5t58 -94.5t89.5 -65.5t116 -24.5t116 24.5t89 65.5t57.5 94.5t20.5 110.5zM477 439q-22 5 -39 8t-37 3q-63 0 -96.5 -33t-33.5 -84t33.5 -83.5t96.5 -32.5q20 0 36.5 2.5t39.5 7.5l9 -52q-21 -7 -43.5 -11t-49.5 -4
q-41 0 -75 13.5t-59 37t-38.5 55t-13.5 67.5t13.5 67.5t38.5 55t59 37t75 13.5q28 0 48.5 -3t45.5 -11z" />
    <glyph glyph-name="ordfeminine" unicode="&#xaa;" horiz-adv-x="387" 
d="M253 347v36q-33 -42 -97 -42q-49 0 -79 27.5t-30 69.5q0 46 27 70t78 24h96v27q0 27 -16 40t-61 13q-26 0 -49.5 -1.5t-49.5 -5.5l-7 60q55 11 113 11q72 0 112 -29.5t40 -89.5v-210h-77zM248 479h-69q-51 0 -51 -41q0 -39 51 -39q32 0 50.5 19t18.5 49v12z" />
    <glyph glyph-name="guillemotleft" unicode="&#xab;" horiz-adv-x="615" 
d="M260 0l-228 243l228 244l54 -50l-182 -193l182 -194zM480 0l-229 243l228 244l54 -50l-182 -193l182 -194z" />
    <glyph glyph-name="logicalnot" unicode="&#xac;" horiz-adv-x="544" 
d="M360 0v196h-305v86h397v-282h-92z" />
    <glyph glyph-name="registered" unicode="&#xae;" horiz-adv-x="739" 
d="M705 333q0 -71 -25 -133.5t-70 -109t-106.5 -74t-133.5 -27.5t-133.5 27.5t-106.5 74t-70.5 109t-25.5 133.5q0 70 25.5 132.5t70.5 109.5t106.5 74t133.5 27t133.5 -27t106.5 -74t70 -109.5t25 -132.5zM652 333q0 57 -20 110.5t-57 94t-89 65t-116 24.5t-116 -24.5
t-89.5 -65t-58 -94t-20.5 -110.5t20.5 -110.5t58 -94.5t89.5 -65.5t116 -24.5t116 24.5t89 65.5t57 94.5t20 110.5zM475 165l-93 127h-82v-127h-65v337h176q24 0 44 -8.5t34 -23.5t22 -34t8 -40q0 -32 -17.5 -57.5t-48.5 -37.5l100 -136h-78zM453 396q0 24 -16 38.5
t-38 14.5h-99v-106h99q23 0 38.5 14.5t15.5 38.5z" />
    <glyph glyph-name="macron" unicode="&#xaf;" horiz-adv-x="387" 
d="M62 601v55h263v-55h-263z" />
    <glyph glyph-name="degree" unicode="&#xb0;" horiz-adv-x="310" 
d="M263 568q0 -23 -8.5 -42.5t-23 -34.5t-34.5 -23.5t-42 -8.5q-23 0 -42.5 8.5t-34 23.5t-23 34.5t-8.5 42.5q0 22 8.5 42t23 34.5t34 23t42.5 8.5q22 0 42 -8.5t34.5 -23t23 -34.5t8.5 -42zM230 568q0 31 -21.5 54t-53.5 23t-54 -23t-22 -54t22 -53.5t54 -22.5t53.5 22.5
t21.5 53.5z" />
    <glyph glyph-name="plusminus" unicode="&#xb1;" horiz-adv-x="589" 
d="M56 0v79h193v115h-193v88h193v195h91v-195h193v-88h-193v-115h193v-79h-477z" />
    <glyph glyph-name="twosuperior" unicode="&#xb2;" horiz-adv-x="666" 
d="M333 500v-167h166v-166h167v-167h-167v167h-166v166h-167v167h-166v166h166v-166h167zM333 167v-167h-167v167h-166v166h166v-166h167zM666 500v-167h-167v167h-166v166h166v-166h167z" />
    <glyph glyph-name="threesuperior" unicode="&#xb3;" horiz-adv-x="666" 
d="M333 500v-167h166v-166h167v-167h-167v167h-166v166h-167v167h-166v166h166v-166h167zM333 167v-167h-167v167h-166v166h166v-166h167zM666 500v-167h-167v167h-166v166h166v-166h167z" />
    <glyph glyph-name="acute" unicode="&#xb4;" horiz-adv-x="328" 
d="M143 551h-81l93 130h126z" />
    <glyph glyph-name="mu" unicode="&#xb5;" horiz-adv-x="579" 
d="M389 0v78q-23 -35 -67 -60.5t-98 -25.5q-23 0 -39 8v-165h-122v652h122v-290q0 -45 20.5 -70.5t66.5 -25.5q21 0 41 8.5t36.5 23.5t26.5 36t10 47v271h123v-487h-120z" />
    <glyph glyph-name="paragraph" unicode="&#xb6;" horiz-adv-x="455" 
d="M301 0v625h-70v-625h-62v372q-30 0 -57 11.5t-47 31.5t-31.5 47t-11.5 57t11.5 57t31.5 47t47 31.5t57 11.5h194v-666h-62z" />
    <glyph glyph-name="periodcentered" unicode="&#xb7;" horiz-adv-x="289" 
d="M77 223v141h135v-141h-135z" />
    <glyph glyph-name="cedilla" unicode="&#xb8;" horiz-adv-x="368" 
d="M306 -170q0 -47 -41 -76.5t-106 -29.5q-20 0 -45.5 3.5t-51.5 12.5l14 48q17 -5 34.5 -7t39.5 -2q38 0 57 14t19 38q0 23 -18 34.5t-48 11.5q-11 0 -29.5 -1t-42.5 -3l28 127h66q-6 -22 -12.5 -43.5t-8.5 -27.5q10 1 17.5 1h12.5q54 0 84.5 -26t30.5 -74z" />
    <glyph glyph-name="onesuperior" unicode="&#xb9;" horiz-adv-x="666" 
d="M333 500v-167h166v-166h167v-167h-167v167h-166v166h-167v167h-166v166h166v-166h167zM333 167v-167h-167v167h-166v166h166v-166h167zM666 500v-167h-167v167h-166v166h166v-166h167z" />
    <glyph glyph-name="ordmasculine" unicode="&#xba;" horiz-adv-x="402" 
d="M365 508q0 -33 -12 -63.5t-33.5 -53t-51.5 -36t-67 -13.5t-67 13.5t-51.5 36t-33.5 53t-12 63.5t12 63.5t33.5 54t51.5 37t67 13.5t67 -13.5t51.5 -37t33.5 -54t12 -63.5zM284 508q0 47 -22.5 75.5t-60.5 28.5t-60.5 -28.5t-22.5 -75.5t22.5 -75t60.5 -28t60.5 28
t22.5 75z" />
    <glyph glyph-name="guillemotright" unicode="&#xbb;" horiz-adv-x="615" 
d="M355 0l-54 50l182 194l-182 193l54 50l228 -244zM135 0l-52 50l181 194l-181 193l53 50l228 -244z" />
    <glyph glyph-name="onequarter" unicode="&#xbc;" horiz-adv-x="666" 
d="M333 500v-167h166v-166h167v-167h-167v167h-166v166h-167v167h-166v166h166v-166h167zM333 167v-167h-167v167h-166v166h166v-166h167zM666 500v-167h-167v167h-166v166h166v-166h167z" />
    <glyph glyph-name="onehalf" unicode="&#xbd;" horiz-adv-x="666" 
d="M333 500v-167h166v-166h167v-167h-167v167h-166v166h-167v167h-166v166h166v-166h167zM333 167v-167h-167v167h-166v166h166v-166h167zM666 500v-167h-167v167h-166v166h166v-166h167z" />
    <glyph glyph-name="threequarters" unicode="&#xbe;" horiz-adv-x="666" 
d="M333 500v-167h166v-166h167v-167h-167v167h-166v166h-167v167h-166v166h166v-166h167zM333 167v-167h-167v167h-166v166h166v-166h167zM666 500v-167h-167v167h-166v166h166v-166h167z" />
    <glyph glyph-name="questiondown" unicode="&#xbf;" horiz-adv-x="559" 
d="M512 24q-27 -8 -56 -14.5t-57.5 -11t-56 -7t-49.5 -2.5q-119 0 -180 48t-61 136q0 70 53 139.5t166 152.5l54 -74l-64 -61t-47.5 -50t-29.5 -47.5t-10 -53.5q0 -43 31.5 -63t102.5 -20q41 0 90 6.5t94 18.5zM223 526v140h135v-140h-135z" />
    <glyph glyph-name="Agrave" unicode="&#xc0;" 
d="M518 0l-57 149h-266l-57 -149h-126l259 666h114l259 -666h-126zM328 535l-101 -289h202zM283 720l-138 130h126l93 -130h-81z" />
    <glyph glyph-name="Aacute" unicode="&#xc1;" 
d="M518 0l-57 149h-266l-57 -149h-126l259 666h114l259 -666h-126zM328 535l-101 -289h202zM372 720h-82l93 130h126z" />
    <glyph glyph-name="Acircumflex" unicode="&#xc2;" 
d="M518 0l-57 149h-266l-57 -149h-126l259 666h114l259 -666h-126zM328 535l-101 -289h202zM389 715l-61 71l-61 -71h-95l110 131h89l113 -131h-95z" />
    <glyph glyph-name="Atilde" unicode="&#xc3;" 
d="M518 0l-57 149h-266l-57 -149h-126l259 666h114l259 -666h-126zM328 535l-101 -289h202zM487 813q-5 -16 -13.5 -34t-20.5 -33t-27.5 -25t-34.5 -10q-20 0 -36 8.5t-30.5 19t-27.5 19t-26 8.5q-10 0 -17.5 -5.5t-13.5 -14t-11 -18t-8 -16.5l-40 18q5 16 13.5 34t20.5 33
t27.5 25t34.5 10t35.5 -8.5t31 -18.5l28 -18.5t26.5 -8.5q10 0 18 5.5t14 14t11 17.5t8 17z" />
    <glyph glyph-name="Adieresis" unicode="&#xc4;" 
d="M518 0l-57 149h-266l-57 -149h-126l259 666h114l259 -666h-126zM328 535l-101 -289h202zM369 721v100h99v-100h-99zM188 721v100h99v-100h-99z" />
    <glyph glyph-name="Aring" unicode="&#xc5;" 
d="M518 0l-57 149h-266l-57 -149h-126l259 666h114l259 -666h-126zM427 792q0 -20 -8 -38t-21.5 -31.5t-31.5 -21t-38 -7.5q-42 0 -70.5 28.5t-28.5 69.5q0 20 7.5 38t21 31.5t31.5 21.5t38 8q21 0 39 -8t31.5 -21.5t21.5 -31.5t8 -38zM328 535l-101 -289h202zM381 792
q0 22 -14.5 39t-38.5 17q-25 0 -38.5 -17t-13.5 -39t13.5 -38.5t37.5 -16.5q25 0 39 16.5t14 38.5h1z" />
    <glyph glyph-name="AE" unicode="&#xc6;" horiz-adv-x="896" 
d="M458 0l-36 149h-226l-57 -149h-127l259 666h563v-110h-394l43 -157h320v-110h-292l48 -179h275v-110h-376zM331 535l-103 -289h172z" />
    <glyph glyph-name="Ccedilla" unicode="&#xc7;" horiz-adv-x="653" 
d="M539 -170q0 -47 -41 -76.5t-106 -29.5q-20 0 -45.5 3.5t-51.5 12.5l14 48q17 -5 34.5 -7t39.5 -2q38 0 57 14t19 38q0 23 -18 34.5t-48 11.5q-11 0 -29.5 -1t-42.5 -3l26 120q-68 9 -124.5 38t-96.5 73.5t-62 102.5t-22 126q0 75 27.5 138t76.5 108.5t117 71t149 25.5
q55 0 99 -6.5t85 -20.5l-25 -105q-72 19 -143 19q-63 0 -111 -17t-81 -47t-49.5 -72.5t-16.5 -93.5t16.5 -93.5t49.5 -73t81 -47.5t111 -17q19 0 36 0.5t33.5 2.5t34 5.5t39.5 9.5l25 -102q-44 -16 -89 -22.5t-95 -6.5l-11 -37.5t-7 -22.5q10 1 17.5 1h12.5q54 0 84.5 -26
t30.5 -74z" />
    <glyph glyph-name="Egrave" unicode="&#xc8;" horiz-adv-x="632" 
d="M92 0v666h478v-110h-350v-157h329v-110h-329v-179h350v-110h-478zM300 720l-137 130h126l93 -130h-82z" />
    <glyph glyph-name="Eacute" unicode="&#xc9;" horiz-adv-x="632" 
d="M92 0v666h478v-110h-350v-157h329v-110h-329v-179h350v-110h-478zM357 720h-82l93 130h126z" />
    <glyph glyph-name="Ecircumflex" unicode="&#xca;" horiz-adv-x="632" 
d="M92 0v666h478v-110h-350v-157h329v-110h-329v-179h350v-110h-478zM387 715l-61 71l-61 -71h-94l110 131h89l112 -131h-95z" />
    <glyph glyph-name="Edieresis" unicode="&#xcb;" horiz-adv-x="632" 
d="M92 0v666h478v-110h-350v-157h329v-110h-329v-179h350v-110h-478zM196 721v100h99v-100h-99zM377 721v100h98v-100h-98z" />
    <glyph glyph-name="Igrave" unicode="&#xcc;" horiz-adv-x="322" 
d="M97 0v666h128v-666h-128zM121 720l-138 130h126l93 -130h-81z" />
    <glyph glyph-name="Iacute" unicode="&#xcd;" horiz-adv-x="322" 
d="M97 0v666h128v-666h-128zM204 720h-81l93 130h126z" />
    <glyph glyph-name="Icircumflex" unicode="&#xce;" horiz-adv-x="322" 
d="M97 0v666h128v-666h-128zM222 715l-61 71l-61 -71h-94l110 131h89l112 -131h-95z" />
    <glyph glyph-name="Idieresis" unicode="&#xcf;" horiz-adv-x="322" 
d="M96 0v666h128v-666h-128zM201 721v100h99v-100h-99zM21 721v100h98v-100h-98z" />
    <glyph glyph-name="Eth" unicode="&#xd0;" horiz-adv-x="719" 
d="M687 333q0 -73 -30.5 -134t-85.5 -105.5t-132 -69t-170 -24.5h-150v292h-77v82h77v292h150q93 0 170 -25t132 -69t85.5 -105t30.5 -134zM555 333q0 57 -21.5 98.5t-58 68.5t-84 40t-99.5 13h-46v-179h135v-82h-135v-179h46q52 0 99.5 13t84 40t58 68.5t21.5 98.5z" />
    <glyph glyph-name="Ntilde" unicode="&#xd1;" horiz-adv-x="767" 
d="M550 0l-333 464v-464h-125v666h125l332 -464v464h126v-666h-125zM538 813q-5 -16 -13.5 -34t-20.5 -33t-27.5 -25t-34.5 -10q-20 0 -36.5 8.5t-30.5 19t-27 19t-26 8.5q-10 0 -18 -5.5t-14 -14t-10.5 -18t-7.5 -16.5l-40 18q5 16 13.5 34t20.5 33t27.5 25t34.5 10
t35.5 -8.5t31 -18.5l28 -18.5t26.5 -8.5q9 0 17 5.5t14.5 14t11.5 17.5t8 17z" />
    <glyph glyph-name="Ograve" unicode="&#xd2;" horiz-adv-x="750" 
d="M708 332q0 -71 -25.5 -133.5t-70 -109t-105.5 -73.5t-132 -27t-132 27t-105.5 73.5t-70 109t-25.5 133.5t25.5 133.5t70 109.5t105.5 74t132 27t132 -27t105.5 -74t70 -109.5t25.5 -133.5zM581 332q0 49 -14 91.5t-41 73.5t-65 48.5t-86 17.5t-86 -17.5t-64.5 -48.5
t-40.5 -73.5t-14 -91.5q0 -50 14 -92t40.5 -72.5t64.5 -48t86 -17.5t86 17.5t65 48t41 72.5t14 92zM333 720l-138 130h126l93 -130h-81z" />
    <glyph glyph-name="Oacute" unicode="&#xd3;" horiz-adv-x="750" 
d="M708 332q0 -71 -25.5 -133.5t-70 -109t-105.5 -73.5t-132 -27t-132 27t-105.5 73.5t-70 109t-25.5 133.5t25.5 133.5t70 109.5t105.5 74t132 27t132 -27t105.5 -74t70 -109.5t25.5 -133.5zM581 332q0 49 -14 91.5t-41 73.5t-65 48.5t-86 17.5t-86 -17.5t-64.5 -48.5
t-40.5 -73.5t-14 -91.5q0 -50 14 -92t40.5 -72.5t64.5 -48t86 -17.5t86 17.5t65 48t41 72.5t14 92zM420 720h-82l93 130h126z" />
    <glyph glyph-name="Ocircumflex" unicode="&#xd4;" horiz-adv-x="750" 
d="M708 332q0 -71 -25.5 -133.5t-70 -109t-105.5 -73.5t-132 -27t-132 27t-105.5 73.5t-70 109t-25.5 133.5t25.5 133.5t70 109.5t105.5 74t132 27t132 -27t105.5 -74t70 -109.5t25.5 -133.5zM581 332q0 49 -14 91.5t-41 73.5t-65 48.5t-86 17.5t-86 -17.5t-64.5 -48.5
t-40.5 -73.5t-14 -91.5q0 -50 14 -92t40.5 -72.5t64.5 -48t86 -17.5t86 17.5t65 48t41 72.5t14 92zM437 715l-60 71l-61 -71h-95l111 131h88l112 -131h-95z" />
    <glyph glyph-name="Otilde" unicode="&#xd5;" horiz-adv-x="750" 
d="M708 332q0 -71 -25.5 -133.5t-70 -109t-105.5 -73.5t-132 -27t-132 27t-105.5 73.5t-70 109t-25.5 133.5t25.5 133.5t70 109.5t105.5 74t132 27t132 -27t105.5 -74t70 -109.5t25.5 -133.5zM581 332q0 49 -14 91.5t-41 73.5t-65 48.5t-86 17.5t-86 -17.5t-64.5 -48.5
t-40.5 -73.5t-14 -91.5q0 -50 14 -92t40.5 -72.5t64.5 -48t86 -17.5t86 17.5t65 48t41 72.5t14 92zM528 813q-5 -16 -13.5 -34t-20.5 -33t-27.5 -25t-34.5 -10q-20 0 -36 8.5t-30.5 19t-27.5 19t-26 8.5q-10 0 -17.5 -5.5t-13.5 -14t-11 -18t-8 -16.5l-40 18q5 16 13.5 34
t20.5 33t27.5 25t34.5 10t35.5 -8.5t31 -18.5l28 -18.5t26.5 -8.5q10 0 18 5.5t14 14t11 17.5t8 17z" />
    <glyph glyph-name="Odieresis" unicode="&#xd6;" horiz-adv-x="750" 
d="M708 332q0 -71 -25.5 -133.5t-70 -109t-105.5 -73.5t-132 -27t-132 27t-105.5 73.5t-70 109t-25.5 133.5t25.5 133.5t70 109.5t105.5 74t132 27t132 -27t105.5 -74t70 -109.5t25.5 -133.5zM581 332q0 49 -14 91.5t-41 73.5t-65 48.5t-86 17.5t-86 -17.5t-64.5 -48.5
t-40.5 -73.5t-14 -91.5q0 -50 14 -92t40.5 -72.5t64.5 -48t86 -17.5t86 17.5t65 48t41 72.5t14 92zM416 721v100h99v-100h-99zM235 721v100h99v-100h-99z" />
    <glyph glyph-name="multiply" unicode="&#xd7;" horiz-adv-x="496" 
d="M385 34l-137 136l-136 -136l-65 64l136 136l-136 137l65 65l136 -136l137 136l64 -65l-136 -137l136 -136z" />
    <glyph glyph-name="Oslash" unicode="&#xd8;" horiz-adv-x="750" 
d="M708 333q0 -71 -25.5 -133.5t-70 -109.5t-105.5 -74t-132 -27q-64 0 -119 22t-99 60l-79 -82l-36 35l80 83q-38 45 -59 103t-21 123q0 71 25.5 133.5t70 109t105.5 73.5t132 27q64 0 119 -22t99 -60l79 82l36 -35l-80 -83q38 -45 59 -102.5t21 -122.5zM513 511
q-26 25 -61 38.5t-77 13.5q-48 0 -86 -17.5t-65 -48t-41 -73t-14 -91.5q0 -82 37 -141zM581 333q0 80 -37 139l-306 -318q26 -25 60.5 -38.5t76.5 -13.5q48 0 86 17.5t65 48.5t41 73t14 92z" />
    <glyph glyph-name="Ugrave" unicode="&#xd9;" horiz-adv-x="745" 
d="M663 266q0 -55 -20.5 -105t-58 -88.5t-91 -61t-120.5 -22.5t-120.5 22.5t-91.5 61t-58.5 88.5t-20.5 105v400h128v-401q0 -38 12 -68t34 -51t51.5 -32t65.5 -11t65.5 11t51.5 32t34 51t12 68v401h127v-400zM334 720l-137 130h126l93 -130h-82z" />
    <glyph glyph-name="Uacute" unicode="&#xda;" horiz-adv-x="745" 
d="M663 266q0 -55 -20.5 -105t-58 -88.5t-91 -61t-120.5 -22.5t-120.5 22.5t-91.5 61t-58.5 88.5t-20.5 105v400h128v-401q0 -38 12 -68t34 -51t51.5 -32t65.5 -11t65.5 11t51.5 32t34 51t12 68v401h127v-400zM411 720h-81l93 130h126z" />
    <glyph glyph-name="Ucircumflex" unicode="&#xdb;" horiz-adv-x="745" 
d="M663 266q0 -55 -20.5 -105t-58 -88.5t-91 -61t-120.5 -22.5t-120.5 22.5t-91.5 61t-58.5 88.5t-20.5 105v400h128v-401q0 -38 12 -68t34 -51t51.5 -32t65.5 -11t65.5 11t51.5 32t34 51t12 68v401h127v-400zM433 715l-61 71l-61 -71h-94l110 131h89l112 -131h-95z" />
    <glyph glyph-name="Udieresis" unicode="&#xdc;" horiz-adv-x="745" 
d="M663 266q0 -55 -20.5 -105t-58 -88.5t-91 -61t-120.5 -22.5t-120.5 22.5t-91.5 61t-58.5 88.5t-20.5 105v400h128v-401q0 -38 12 -68t34 -51t51.5 -32t65.5 -11t65.5 11t51.5 32t34 51t12 68v401h127v-400zM413 721v100h99v-100h-99zM233 721v100h98v-100h-98z" />
    <glyph glyph-name="Yacute" unicode="&#xdd;" horiz-adv-x="607" 
d="M368 264v-264h-128v264l-238 402h129l173 -289l172 289h129zM356 720h-82l93 130h126z" />
    <glyph glyph-name="Thorn" unicode="&#xde;" horiz-adv-x="670" 
d="M650 341q0 -42 -16 -80.5t-44.5 -67.5t-69.5 -46t-90 -17h-211v-130h-127v666h127v-114h211q49 0 90 -17t69.5 -46t44.5 -67.5t16 -80.5zM519 341q0 48 -31.5 77.5t-75.5 29.5h-193v-215h193q46 0 76.5 30t30.5 78z" />
    <glyph glyph-name="germandbls" unicode="&#xdf;" horiz-adv-x="639" 
d="M597 135q0 -66 -49.5 -105.5t-140.5 -39.5q-29 0 -65.5 7.5t-65.5 21.5l23 84q31 -12 58 -16.5t49 -4.5q37 0 55 14t18 34q0 11 -3.5 19.5t-11.5 16.5t-22.5 17t-36.5 20q-33 17 -54 32.5t-33.5 32t-17 34.5t-4.5 39q0 28 16 49t34.5 40t34.5 39.5t16 49.5q0 36 -22.5 56
t-63.5 20q-36 0 -58 -21t-22 -59v-515h-123v397h-66v82h66v30q0 86 55 134t146 48q51 0 90 -14t65.5 -37t40.5 -53t14 -63q0 -42 -15.5 -69t-34.5 -46.5l-34.5 -34.5t-15.5 -33q0 -17 9.5 -27.5t41.5 -26.5q33 -16 56.5 -30.5t39.5 -32t23.5 -38.5t7.5 -51z" />
    <glyph glyph-name="agrave" unicode="&#xe0;" horiz-adv-x="511" 
d="M344 0v54q-24 -30 -59 -46t-86 -16q-37 0 -67 10.5t-51.5 30t-33.5 46t-12 58.5q0 69 41.5 105.5t116.5 36.5h146v41q0 40 -25 60t-92 20q-38 0 -74 -3t-76 -8l-10 90q39 8 83.5 12.5t87.5 4.5q108 0 168 -44t60 -135v-317h-117zM339 199h-106q-37 0 -56.5 -14t-19.5 -47
q0 -59 76 -59q49 0 77.5 28t28.5 74v18zM201 551l-138 130h126l93 -130h-81z" />
    <glyph glyph-name="aacute" unicode="&#xe1;" horiz-adv-x="511" 
d="M344 0v54q-24 -30 -59 -46t-86 -16q-37 0 -67 10.5t-51.5 30t-33.5 46t-12 58.5q0 69 41.5 105.5t116.5 36.5h146v41q0 40 -25 60t-92 20q-38 0 -74 -3t-76 -8l-10 90q39 8 83.5 12.5t87.5 4.5q108 0 168 -44t60 -135v-317h-117zM339 199h-106q-37 0 -56.5 -14t-19.5 -47
q0 -59 76 -59q49 0 77.5 28t28.5 74v18zM276 551h-81l93 130h126z" />
    <glyph glyph-name="acircumflex" unicode="&#xe2;" horiz-adv-x="511" 
d="M344 0v54q-24 -30 -59 -46t-86 -16q-37 0 -67 10.5t-51.5 30t-33.5 46t-12 58.5q0 69 41.5 105.5t116.5 36.5h146v41q0 40 -25 60t-92 20q-38 0 -74 -3t-76 -8l-10 90q39 8 83.5 12.5t87.5 4.5q108 0 168 -44t60 -135v-317h-117zM339 199h-106q-37 0 -56.5 -14t-19.5 -47
q0 -59 76 -59q49 0 77.5 28t28.5 74v18zM314 550l-61 70l-61 -70h-94l110 131h89l112 -131h-95z" />
    <glyph glyph-name="atilde" unicode="&#xe3;" horiz-adv-x="511" 
d="M344 0v54q-24 -30 -59 -46t-86 -16q-37 0 -67 10.5t-51.5 30t-33.5 46t-12 58.5q0 69 41.5 105.5t116.5 36.5h146v41q0 40 -25 60t-92 20q-38 0 -74 -3t-76 -8l-10 90q39 8 83.5 12.5t87.5 4.5q108 0 168 -44t60 -135v-317h-117zM339 199h-106q-37 0 -56.5 -14t-19.5 -47
q0 -59 76 -59q49 0 77.5 28t28.5 74v18zM414 655q-5 -16 -13.5 -34t-20.5 -33t-27.5 -25t-34.5 -10q-20 0 -36 8.5t-30.5 19t-27.5 19t-26 8.5q-10 0 -17.5 -5.5t-13.5 -14t-11 -18t-8 -16.5l-40 18q5 16 13.5 34t20.5 33t27.5 25t34.5 10t35.5 -8.5t31 -18.5l28 -18.5
t26.5 -8.5q10 0 18 5.5t14 14t11 17.5t8 17l38 -19v0z" />
    <glyph glyph-name="adieresis" unicode="&#xe4;" horiz-adv-x="511" 
d="M344 0v54q-24 -30 -59 -46t-86 -16q-37 0 -67 10.5t-51.5 30t-33.5 46t-12 58.5q0 69 41.5 105.5t116.5 36.5h146v41q0 40 -25 60t-92 20q-38 0 -74 -3t-76 -8l-10 90q39 8 83.5 12.5t87.5 4.5q108 0 168 -44t60 -135v-317h-117zM339 199h-106q-37 0 -56.5 -14t-19.5 -47
q0 -59 76 -59q49 0 77.5 28t28.5 74v18zM297 560v100h99v-100h-99zM117 560v100h98v-100h-98z" />
    <glyph glyph-name="aring" unicode="&#xe5;" horiz-adv-x="511" 
d="M344 0v54q-24 -30 -59 -46t-86 -16q-37 0 -67 10.5t-51.5 30t-33.5 46t-12 58.5q0 69 41.5 105.5t116.5 36.5h146v41q0 40 -25 60t-92 20q-38 0 -74 -3t-76 -8l-10 90q39 8 83.5 12.5t87.5 4.5q108 0 168 -44t60 -135v-317h-117zM339 199h-106q-37 0 -56.5 -14t-19.5 -47
q0 -59 76 -59q49 0 77.5 28t28.5 74v18zM347 636q0 -20 -8 -38t-21.5 -31.5t-31.5 -21.5t-38 -8t-38 8t-31.5 21.5t-21 31.5t-7.5 38t7.5 38t21 31.5t31.5 21.5t38 8t38 -8t31.5 -21.5t21.5 -31.5t8 -38zM301 636q0 22 -14 38.5t-39 16.5t-38 -16.5t-13 -38.5t13.5 -38.5
t37.5 -16.5t38.5 16.5t14.5 38.5z" />
    <glyph glyph-name="ae" unicode="&#xe6;" horiz-adv-x="840" 
d="M458 207q2 -55 40.5 -87t115.5 -32q35 0 70 5t69 14l22 -88q-40 -14 -79 -20.5t-84 -6.5q-69 0 -121 20t-87 57q-28 -36 -71.5 -56.5t-103.5 -20.5q-45 0 -81 11.5t-61 31.5t-38.5 47.5t-13.5 59.5q0 69 41.5 105.5t116.5 36.5h145v36q0 40 -25 60t-92 20q-38 0 -73.5 -3
t-75.5 -8l-10 90q39 8 83 12.5t87 4.5q130 0 184 -63q29 29 69 46t90 17q53 0 95 -18.5t71.5 -52.5t45 -80.5t15.5 -103.5v-34h-344zM686 287q-5 53 -32.5 84t-78.5 31q-48 0 -79 -29.5t-38 -85.5h228zM338 204h-105q-37 0 -56.5 -15t-19.5 -48q0 -62 76 -62q51 0 78 28
t27 74v23z" />
    <glyph glyph-name="ccedilla" unicode="&#xe7;" horiz-adv-x="486" 
d="M437 -170q0 -47 -41 -76.5t-106 -29.5q-20 0 -45.5 3.5t-51.5 12.5l14 48q17 -5 34.5 -7t39.5 -2q38 0 57 14t19 38q0 23 -18 34.5t-48 11.5q-11 0 -29.5 -1t-42.5 -3l27 124q-49 8 -88.5 30t-67.5 54.5t-43 74t-15 88.5q0 53 19 99t54.5 80t85 53.5t110.5 19.5
q34 0 65.5 -5t61.5 -16l-20 -88q-26 6 -50.5 8.5t-46.5 2.5q-80 0 -118.5 -42.5t-38.5 -111.5q0 -68 38.5 -111.5t118.5 -43.5q26 0 47.5 3.5t49.5 11.5l20 -89q-23 -9 -55.5 -15t-61.5 -8l-11.5 -38.5t-7.5 -24.5q10 1 17.5 1h12.5q54 0 84.5 -26t30.5 -74z" />
    <glyph glyph-name="egrave" unicode="&#xe8;" horiz-adv-x="534" 
d="M151 204q2 -55 45 -85.5t111 -30.5q35 0 72 5t71 14l22 -88q-42 -14 -81.5 -20.5t-84.5 -6.5q-66 0 -117 18.5t-86 51.5t-53 79.5t-18 102.5q0 50 16 96t47 80.5t74.5 55t99.5 20.5q53 0 95 -18.5t71.5 -52.5t45 -80.5t15.5 -103.5v-37h-345zM380 290q-5 53 -32.5 82.5
t-78.5 29.5q-48 0 -79 -28t-38 -84h228zM223 551l-138 130h126l93 -130h-81z" />
    <glyph glyph-name="eacute" unicode="&#xe9;" horiz-adv-x="534" 
d="M151 204q2 -55 45 -85.5t111 -30.5q35 0 72 5t71 14l22 -88q-42 -14 -81.5 -20.5t-84.5 -6.5q-66 0 -117 18.5t-86 51.5t-53 79.5t-18 102.5q0 50 16 96t47 80.5t74.5 55t99.5 20.5q53 0 95 -18.5t71.5 -52.5t45 -80.5t15.5 -103.5v-37h-345zM380 290q-5 53 -32.5 82.5
t-78.5 29.5q-48 0 -79 -28t-38 -84h228zM311 551h-81l93 130h126z" />
    <glyph glyph-name="ecircumflex" unicode="&#xea;" horiz-adv-x="534" 
d="M151 204q2 -55 45 -85.5t111 -30.5q35 0 72 5t71 14l22 -88q-42 -14 -81.5 -20.5t-84.5 -6.5q-66 0 -117 18.5t-86 51.5t-53 79.5t-18 102.5q0 50 16 96t47 80.5t74.5 55t99.5 20.5q53 0 95 -18.5t71.5 -52.5t45 -80.5t15.5 -103.5v-37h-345zM380 290q-5 53 -32.5 82.5
t-78.5 29.5q-48 0 -79 -28t-38 -84h228zM338 550l-61 70l-61 -70h-94l110 131h89l112 -131h-95z" />
    <glyph glyph-name="edieresis" unicode="&#xeb;" horiz-adv-x="534" 
d="M151 204q2 -55 45 -85.5t111 -30.5q35 0 72 5t71 14l22 -88q-42 -14 -81.5 -20.5t-84.5 -6.5q-66 0 -117 18.5t-86 51.5t-53 79.5t-18 102.5q0 50 16 96t47 80.5t74.5 55t99.5 20.5q53 0 95 -18.5t71.5 -52.5t45 -80.5t15.5 -103.5v-37h-345zM380 290q-5 53 -32.5 82.5
t-78.5 29.5q-48 0 -79 -28t-38 -84h228zM312 560v100h99v-100h-99zM132 560v100h98v-100h-98z" />
    <glyph glyph-name="igrave" unicode="&#xec;" horiz-adv-x="269" 
d="M71 0v487h122v-487h-122zM96 551l-138 130h126l93 -130h-81z" />
    <glyph glyph-name="iacute" unicode="&#xed;" horiz-adv-x="269" 
d="M70 0v487h122v-487h-122zM167 551h-81l93 130h126z" />
    <glyph glyph-name="icircumflex" unicode="&#xee;" horiz-adv-x="269" 
d="M70 0v487h122v-487h-122zM196 550l-61 70l-61 -70h-94l110 131h89l112 -131h-95z" />
    <glyph glyph-name="idieresis" unicode="&#xef;" horiz-adv-x="269" 
d="M70 0v487h122v-487h-122zM177 560v100h99v-100h-99zM-3 560v100h98v-100h-98z" />
    <glyph glyph-name="eth" unicode="&#xf0;" horiz-adv-x="553" 
d="M513 291q0 -59 -14.5 -113.5t-44.5 -95.5t-77.5 -65.5t-113.5 -24.5q-58 0 -101 22t-72 58t-43.5 81t-14.5 91q0 48 13.5 93t39.5 80.5t65.5 57t92.5 21.5q46 0 83 -21.5t60 -59.5q-11 68 -50 130l-43 -34l-18 22l45 36q-19 26 -42.5 50t-51.5 47h117q13 -10 24 -20
t22 -22l45 35l18 -23l-44 -34q48 -60 76.5 -140t28.5 -171zM390 244q0 69 -31.5 112.5t-87.5 43.5q-29 0 -51 -12.5t-37 -33.5t-22.5 -49.5t-7.5 -60.5t7.5 -60.5t22.5 -49.5t37 -33.5t51 -12.5q27 0 49 11.5t37.5 32.5t24 49.5t8.5 62.5z" />
    <glyph glyph-name="ntilde" unicode="&#xf1;" horiz-adv-x="581" 
d="M394 0v291q0 45 -21 70.5t-67 25.5q-21 0 -41 -8.5t-36.5 -24t-26.5 -37t-10 -46.5v-271h-122v487h119v-77q23 35 67.5 60.5t98.5 25.5q82 0 121.5 -51.5t39.5 -135.5v-309h-122zM464 655q-5 -16 -13.5 -34t-20.5 -33t-27.5 -25t-34.5 -10q-20 0 -36 8.5t-30.5 19
t-27.5 19t-26 8.5q-10 0 -17.5 -5.5t-13.5 -14t-11 -18t-8 -16.5l-40 18q5 16 13.5 34t20.5 33t27.5 25t34.5 10t35.5 -8.5t31 -18.5l28 -18.5t26.5 -8.5q10 0 18 5.5t14 14t11 17.5t8 17l38 -19v0z" />
    <glyph glyph-name="ograve" unicode="&#xf2;" horiz-adv-x="559" 
d="M527 244q0 -50 -18 -96t-50.5 -80.5t-78.5 -55t-101 -20.5q-56 0 -101.5 20.5t-77.5 55t-50 80.5t-18 96t18 96t50 80.5t77.5 55t101.5 20.5q55 0 101 -20.5t78.5 -55t50.5 -80.5t18 -96zM405 244q0 71 -33.5 114t-92.5 43t-91.5 -43t-32.5 -114t32.5 -113.5t91.5 -42.5
t92.5 42.5t33.5 113.5zM222 551l-138 130h126l93 -130h-81z" />
    <glyph glyph-name="oacute" unicode="&#xf3;" horiz-adv-x="559" 
d="M527 244q0 -50 -18 -96t-50.5 -80.5t-78.5 -55t-101 -20.5q-56 0 -101.5 20.5t-77.5 55t-50 80.5t-18 96t18 96t50 80.5t77.5 55t101.5 20.5q55 0 101 -20.5t78.5 -55t50.5 -80.5t18 -96zM405 244q0 71 -33.5 114t-92.5 43t-91.5 -43t-32.5 -114t32.5 -113.5t91.5 -42.5
t92.5 42.5t33.5 113.5zM322 551h-81l93 130h126z" />
    <glyph glyph-name="ocircumflex" unicode="&#xf4;" horiz-adv-x="559" 
d="M527 244q0 -50 -18 -96t-50.5 -80.5t-78.5 -55t-101 -20.5q-56 0 -101.5 20.5t-77.5 55t-50 80.5t-18 96t18 96t50 80.5t77.5 55t101.5 20.5q55 0 101 -20.5t78.5 -55t50.5 -80.5t18 -96zM405 244q0 71 -33.5 114t-92.5 43t-91.5 -43t-32.5 -114t32.5 -113.5t91.5 -42.5
t92.5 42.5t33.5 113.5zM342 550l-61 70l-61 -70h-94l110 131h89l112 -131h-95z" />
    <glyph glyph-name="otilde" unicode="&#xf5;" horiz-adv-x="559" 
d="M527 244q0 -50 -18 -96t-50.5 -80.5t-78.5 -55t-101 -20.5q-56 0 -101.5 20.5t-77.5 55t-50 80.5t-18 96t18 96t50 80.5t77.5 55t101.5 20.5q55 0 101 -20.5t78.5 -55t50.5 -80.5t18 -96zM405 244q0 71 -33.5 114t-92.5 43t-91.5 -43t-32.5 -114t32.5 -113.5t91.5 -42.5
t92.5 42.5t33.5 113.5zM438 655q-5 -16 -13.5 -34t-20.5 -33t-27.5 -25t-34.5 -10q-20 0 -36 8.5t-30.5 19t-27.5 19t-26 8.5q-10 0 -17.5 -5.5t-13.5 -14t-11 -18t-8 -16.5l-40 18q5 16 13.5 34t20.5 33t27.5 25t34.5 10t35.5 -8.5t31 -18.5l28 -18.5t26.5 -8.5
q10 0 18 5.5t14 14t11 17.5t8 17l38 -19v0z" />
    <glyph glyph-name="odieresis" unicode="&#xf6;" horiz-adv-x="559" 
d="M527 244q0 -50 -18 -96t-50.5 -80.5t-78.5 -55t-101 -20.5q-56 0 -101.5 20.5t-77.5 55t-50 80.5t-18 96t18 96t50 80.5t77.5 55t101.5 20.5q55 0 101 -20.5t78.5 -55t50.5 -80.5t18 -96zM405 244q0 71 -33.5 114t-92.5 43t-91.5 -43t-32.5 -114t32.5 -113.5t91.5 -42.5
t92.5 42.5t33.5 113.5zM323 560v100h99v-100h-99zM143 560v100h98v-100h-98z" />
    <glyph glyph-name="divide" unicode="&#xf7;" horiz-adv-x="569" 
d="M52 188v83h465v-83h-465zM352 396q0 -28 -20 -48t-48 -20t-47.5 20t-19.5 48t19.5 47.5t47.5 19.5t48 -19.5t20 -47.5zM352 64q0 -28 -20 -47.5t-48 -19.5t-47.5 19.5t-19.5 47.5t19.5 47.5t47.5 19.5t48 -19.5t20 -47.5z" />
    <glyph glyph-name="oslash" unicode="&#xf8;" horiz-adv-x="558" 
d="M526 244q0 -50 -18 -96t-50 -80.5t-78 -55t-101 -20.5q-49 0 -89 16t-72 43l-58 -59l-28 27l58 60q-28 34 -43 76t-15 89q0 50 18 96t50 80.5t77.5 55t101.5 20.5q49 0 89.5 -15.5t72.5 -43.5l58 59l27 -27l-58 -60q28 -34 43 -76t15 -89zM404 244q0 48 -17 84l-195 -202
q33 -38 87 -38q59 0 92 42.5t33 113.5zM366 362q-33 38 -87 38q-59 0 -92 -42.5t-33 -113.5q0 -48 17 -84z" />
    <glyph glyph-name="ugrave" unicode="&#xf9;" horiz-adv-x="579" 
d="M389 0v78q-23 -35 -67 -60.5t-98 -25.5q-83 0 -122 51t-39 135v309h122v-290q0 -45 20.5 -70.5t66.5 -25.5q21 0 41 8.5t36.5 23.5t26.5 36t10 47v271h123v-487h-120zM242 551l-138 130h126l93 -130h-81z" />
    <glyph glyph-name="uacute" unicode="&#xfa;" horiz-adv-x="579" 
d="M389 0v78q-23 -35 -67 -60.5t-98 -25.5q-83 0 -122 51t-39 135v309h122v-290q0 -45 20.5 -70.5t66.5 -25.5q21 0 41 8.5t36.5 23.5t26.5 36t10 47v271h123v-487h-120zM323 551h-81l93 130h126z" />
    <glyph glyph-name="ucircumflex" unicode="&#xfb;" horiz-adv-x="579" 
d="M389 0v78q-23 -35 -67 -60.5t-98 -25.5q-83 0 -122 51t-39 135v309h122v-290q0 -45 20.5 -70.5t66.5 -25.5q21 0 41 8.5t36.5 23.5t26.5 36t10 47v271h123v-487h-120zM354 550l-61 70l-61 -70h-94l110 131h89l112 -131h-95z" />
    <glyph glyph-name="udieresis" unicode="&#xfc;" horiz-adv-x="579" 
d="M389 0v78q-23 -35 -67 -60.5t-98 -25.5q-83 0 -122 51t-39 135v309h122v-290q0 -45 20.5 -70.5t66.5 -25.5q21 0 41 8.5t36.5 23.5t26.5 36t10 47v271h123v-487h-120zM331 560v100h99v-100h-99zM151 560v100h98v-100h-98z" />
    <glyph glyph-name="yacute" unicode="&#xfd;" horiz-adv-x="494" 
d="M244 -165h-118l62 166l-186 486h119l125 -355l122 355h119zM281 551h-81l93 130h126z" />
    <glyph glyph-name="thorn" unicode="&#xfe;" horiz-adv-x="583" 
d="M551 244q0 -48 -13.5 -93t-39.5 -80.5t-66 -57t-92 -21.5q-92 0 -148 78v-234h-122v830h122v-249q26 35 64.5 57t83.5 22q52 0 91.5 -22t66 -58t40 -81t13.5 -91zM429 244q0 32 -7.5 60.5t-22 49.5t-36.5 33.5t-51 12.5q-27 0 -49.5 -11.5t-38 -32.5t-24 -49.5
t-8.5 -62.5t8.5 -62.5t24 -49.5t37.5 -32.5t50 -11.5q29 0 51 12.5t36.5 33.5t22 49.5t7.5 60.5z" />
    <glyph glyph-name="ydieresis" unicode="&#xff;" horiz-adv-x="494" 
d="M244 -165h-118l62 166l-186 486h119l125 -355l122 355h119zM290 560v100h99v-100h-99zM110 560v100h98v-100h-98z" />
    <glyph glyph-name="dotlessi" unicode="&#x131;" horiz-adv-x="262" 
d="M70 0v487h122v-487h-122z" />
    <glyph glyph-name="Lslash" unicode="&#x141;" horiz-adv-x="591" 
d="M113 0v267l-54 -41l-35 45l89 68v327h128v-228l86 64l34 -45l-120 -91v-256h328v-110h-456z" />
    <glyph glyph-name="lslash" unicode="&#x142;" horiz-adv-x="379" 
d="M217 365v-201q0 -42 12 -58t45 -16h22.5t21.5 1v-96q-4 -1 -13.5 -1.5l-19.5 -1t-19.5 -0.5h-13.5q-34 0 -62.5 9t-49.5 28.5t-33 49.5t-12 72v120l-60 -45l-33 44l93 71v325h122v-230l87 66l33 -44z" />
    <glyph glyph-name="OE" unicode="&#x152;" horiz-adv-x="1016" 
d="M604 556v-157h330v-110h-330v-179h350v-110h-579q-71 0 -132 25.5t-105.5 70t-70 105.5t-25.5 132t25.5 132t70 105.5t105.5 70t132 25.5h579v-110h-350zM476 553h-101q-48 0 -86 -16t-65 -44.5t-41 -69.5t-14 -90q0 -50 14 -90.5t41 -69t65 -44.5t86 -16h101v440z" />
    <glyph glyph-name="oe" unicode="&#x153;" horiz-adv-x="906" 
d="M523 207q2 -55 40.5 -87t115.5 -32q35 0 70.5 5t69.5 14l22 -88q-40 -14 -79 -20.5t-84 -6.5q-72 0 -126 22.5t-89 62.5q-32 -38 -78.5 -61.5t-105.5 -23.5q-56 0 -101.5 20.5t-77.5 55t-50 80.5t-18 96t18 96t50 80.5t77.5 55t101.5 20.5q59 0 105.5 -23.5t78.5 -61.5
q30 38 74.5 61.5t103.5 23.5q53 0 95 -18.5t71.5 -52.5t45 -80.5t15.5 -103.5v-34h-345zM404 244q0 71 -33 114t-92 43t-92 -43t-33 -114t33 -113.5t92 -42.5t92 42.5t33 113.5zM751 287q-5 53 -32 84t-78 31q-48 0 -79 -29.5t-38 -85.5h227z" />
    <glyph glyph-name="Scaron" unicode="&#x160;" horiz-adv-x="655" 
d="M605 182q0 -44 -20 -80t-56 -61t-86.5 -38.5t-111.5 -13.5q-33 0 -69.5 4t-73 11t-71 17t-62.5 23l28 99q63 -22 125.5 -34t120.5 -12q71 0 110 20.5t39 60.5q0 17 -7.5 29.5t-27 24.5t-52.5 25l-83 32q-60 22 -103 42.5t-70.5 44.5t-40.5 53.5t-13 71.5q0 89 65 132
t201 43q27 0 59 -2t64 -6t62 -10.5t55 -14.5l-19 -102q-48 11 -107.5 18t-111.5 7q-77 0 -109 -13.5t-32 -48.5q0 -19 9 -32.5t30 -26.5t57 -27.5l90 -35.5q57 -23 97.5 -41t65.5 -39.5t36.5 -49.5t11.5 -70zM390 715h-88l-112 131h95l60 -70l61 70h95z" />
    <glyph glyph-name="scaron" unicode="&#x161;" horiz-adv-x="482" 
d="M445 137q0 -33 -14.5 -59.5t-41.5 -45.5t-64.5 -29.5t-83.5 -10.5q-48 0 -101 12t-98 32l27 85q45 -16 89 -25.5t82 -9.5q48 0 67 13t19 33q0 11 -4 18.5t-14.5 14.5t-28.5 15t-46 19q-49 20 -82 36t-53.5 33.5t-29 39t-8.5 52.5q0 69 50.5 102.5t146.5 33.5
q18 0 39.5 -1.5t44 -4.5t45 -8t42.5 -12l-21 -89q-30 8 -71 14.5t-77 6.5q-48 0 -65 -9t-17 -29q0 -12 5 -20.5t17.5 -16t33.5 -16l53 -21.5q46 -18 76.5 -32.5t49 -31t26 -37.5t7.5 -52zM305 550h-88l-112 131h95l60 -71l61 71h95z" />
    <glyph glyph-name="Ydieresis" unicode="&#x178;" horiz-adv-x="607" 
d="M368 264v-264h-128v264l-238 402h129l173 -289l172 289h129zM160 721v100h99v-100h-99zM341 721v100h99v-100h-99z" />
    <glyph glyph-name="Zcaron" unicode="&#x17d;" horiz-adv-x="644" 
d="M52 0v114l388 442h-378v110h530v-113l-386 -443h396v-110h-550zM377 715h-89l-112 131h95l61 -70l61 70h94z" />
    <glyph glyph-name="zcaron" unicode="&#x17e;" horiz-adv-x="545" 
d="M60 0v92l272 303h-251v92h399v-91l-276 -303h281v-93h-425zM328 550h-88l-112 131h95l60 -71l61 71h95z" />
    <glyph glyph-name="florin" unicode="&#x192;" horiz-adv-x="478" 
d="M446 590q-14 3 -29 4t-28 1q-35 0 -52.5 -20t-24.5 -56l-7 -39h94l-14 -83h-94l-70 -393q-16 -88 -65 -132.5t-125 -44.5q-21 0 -39.5 3t-39.5 10l29 83q14 -3 20 -4.5t19 -1.5q35 0 53.5 20t24.5 56l70 404h-66l14 83h67l6 35q15 88 65.5 132t126.5 44q23 0 47.5 -3
t47.5 -10z" />
    <glyph glyph-name="circumflex" unicode="&#x2c6;" horiz-adv-x="435" 
d="M278 550l-61 70l-61 -70h-94l110 131h89l112 -131h-95z" />
    <glyph glyph-name="caron" unicode="&#x2c7;" horiz-adv-x="435" 
d="M262 550h-88l-112 131h95l60 -71l61 71h95z" />
    <glyph glyph-name="breve" unicode="&#x2d8;" horiz-adv-x="396" 
d="M334 666q0 -29 -10.5 -51t-29.5 -37t-44 -23t-53 -8q-57 0 -96 30.5t-39 88.5h65q0 -29 17.5 -48.5t52.5 -19.5t53 18t18 50h66v0z" />
    <glyph glyph-name="dotaccent" unicode="&#x2d9;" horiz-adv-x="262" 
d="M70 568v117h122v-117h-122z" />
    <glyph glyph-name="ring" unicode="&#x2da;" horiz-adv-x="321" 
d="M259 636q0 -20 -8 -38t-21.5 -31.5t-31.5 -21.5t-38 -8t-38 8t-31.5 21.5t-21 31.5t-7.5 38t7.5 38t21 31.5t31.5 21.5t38 8t38 -8t31.5 -21.5t21.5 -31.5t8 -38zM213 636q0 22 -14 38.5t-39 16.5t-38 -16.5t-13 -38.5t13.5 -38.5t37.5 -16.5t38.5 16.5t14.5 38.5z" />
    <glyph glyph-name="ogonek" unicode="&#x2db;" horiz-adv-x="360" 
d="M298 -190q-24 -9 -50.5 -15t-52.5 -6q-60 0 -96.5 29.5t-36.5 76.5q0 26 19 55.5t46 49.5h76q-38 -38 -50.5 -61.5t-12.5 -43.5q0 -24 15.5 -38.5t44.5 -14.5q21 0 40 4.5t44 12.5l14 -49v0z" />
    <glyph glyph-name="tilde" unicode="&#x2dc;" horiz-adv-x="430" 
d="M368 655q-5 -16 -13.5 -34t-20.5 -33t-27.5 -25t-34.5 -10q-20 0 -36 8.5t-30.5 19t-27.5 19t-26 8.5q-10 0 -17.5 -5.5t-13.5 -14t-11 -18t-8 -16.5l-40 18q5 16 13.5 34t20.5 33t27.5 25t34.5 10t35.5 -8.5t31 -18.5l28 -18.5t26.5 -8.5q10 0 18 5.5t14 14t11 17.5
t8 17l38 -19v0z" />
    <glyph glyph-name="hungarumlaut" unicode="&#x2dd;" horiz-adv-x="517" 
d="M333 550h-82l93 130h126zM143 550h-81l92 130h126z" />
    <glyph glyph-name="uni03A9" unicode="&#x3a9;" horiz-adv-x="615" 
d="M511 194l-346 346v-229h-73v355h355v-74h-229l345 -345z" />
    <glyph glyph-name="pi" unicode="&#x3c0;" horiz-adv-x="616" 
d="M169 0v74h228l-345 345l53 54l345 -346v229h74v-356h-355z" />
    <glyph glyph-name="endash" unicode="&#x2013;" horiz-adv-x="575" 
d="M57 228v102h461v-102h-461z" />
    <glyph glyph-name="emdash" unicode="&#x2014;" horiz-adv-x="800" 
d="M57 228v102h686v-102h-686z" />
    <glyph glyph-name="quoteleft" unicode="&#x2018;" horiz-adv-x="278" 
d="M77 374v140l69 152h58l-59 -152h67v-140h-135z" />
    <glyph glyph-name="quoteright" unicode="&#x2019;" horiz-adv-x="279" 
d="M132 374h-58l60 152h-68v140h136v-140z" />
    <glyph glyph-name="quotesinglbase" unicode="&#x201a;" horiz-adv-x="280" 
d="M133 -152h-58l59 152h-67v141h136v-141z" />
    <glyph glyph-name="quotedblleft" unicode="&#x201c;" horiz-adv-x="495" 
d="M77 374v140l69 152h59l-59 -152h66v-140h-135zM292 374v140l70 152h58l-60 -152h68v-140h-136z" />
    <glyph glyph-name="quotedblright" unicode="&#x201d;" horiz-adv-x="495" 
d="M348 374h-58l59 152h-67v140h136v-140zM133 374h-58l59 152h-67v140h136v-140z" />
    <glyph glyph-name="quotedblbase" unicode="&#x201e;" horiz-adv-x="494" 
d="M133 -152h-59l59 152h-66v141h135v-141zM347 -152h-58l60 152h-68v141h136v-141z" />
    <glyph glyph-name="dagger" unicode="&#x2020;" horiz-adv-x="478" 
d="M262 438l37 -185l-49 -388h-22l-50 388l38 185l-166 -36v119l166 -35l-37 180h120l-37 -180l166 35v-119z" />
    <glyph glyph-name="daggerdbl" unicode="&#x2021;" horiz-adv-x="479" 
d="M263 438l37 -195l-38 -194l166 35v-118l-166 35l37 -180h-120l37 180l-166 -35v118l166 -35l-37 194l37 195l-165 -36v119l165 -35l-37 180h120l-36 -180l166 35v-119z" />
    <glyph glyph-name="bullet" unicode="&#x2022;" horiz-adv-x="311" 
d="M264 356q0 -23 -8.5 -42.5t-23.5 -34t-35 -23t-42 -8.5q-23 0 -42.5 8.5t-34 23t-23 34t-8.5 42.5q0 22 8.5 42t23 35t34 23.5t42.5 8.5q22 0 42 -8.5t35 -23.5t23.5 -35t8.5 -42z" />
    <glyph glyph-name="ellipsis" unicode="&#x2026;" horiz-adv-x="867" 
d="M654 0v141h136v-141h-136zM365 0v141h136v-141h-136zM77 0v141h135v-141h-135z" />
    <glyph glyph-name="perthousand" unicode="&#x2030;" horiz-adv-x="1258" 
d="M1201 167q0 -36 -11 -68.5t-32 -56.5t-51 -38.5t-67 -14.5q-38 0 -67.5 14.5t-50.5 38.5t-32 56.5t-11 68.5t11 68t32 56.5t50.5 38.5t67.5 14q37 0 67 -14t51 -38.5t32 -56.5t11 -68zM813 167q0 -36 -11 -68.5t-32 -56.5t-51 -38.5t-67 -14.5q-38 0 -67.5 14.5
t-50.5 38.5t-32 56.5t-11 68.5t11 68t32 56.5t50.5 38.5t67.5 14q37 0 67 -14t51 -38.5t32 -56.5t11 -68zM364 499q0 -36 -11 -68.5t-32 -56.5t-51 -38.5t-67 -14.5q-38 0 -67.5 14.5t-50.5 38.5t-32 56.5t-11 68.5t11 68t32 56.5t50.5 38.5t67.5 14q37 0 67 -14t51 -38.5
t32 -56.5t11 -68zM289 0h-88l366 666h87zM729 167q0 20 -4.5 39t-14 33.5t-24 23.5t-34.5 9t-34.5 -9t-24 -23.5t-14 -33.5t-4.5 -39t4.5 -39t14 -34t24 -24t34.5 -9t34.5 9t24 24t14 34t4.5 39zM1117 167q0 20 -4.5 39t-14 33.5t-24 23.5t-34.5 9t-34.5 -9t-24 -23.5
t-14 -33.5t-4.5 -39t4.5 -39t14 -34t24 -24t34.5 -9t34.5 9t24 24t14 34t4.5 39zM280 499q0 20 -4.5 38.5t-14 33t-24 23.5t-34.5 9t-34.5 -9t-24 -23.5t-14 -33t-4.5 -38.5t4.5 -39t14 -34t24 -24t34.5 -9t34.5 9t24 24t14 34t4.5 39z" />
    <glyph glyph-name="guilsinglleft" unicode="&#x2039;" horiz-adv-x="396" 
d="M261 0l-229 243l229 244l53 -50l-181 -193l181 -194z" />
    <glyph glyph-name="guilsinglright" unicode="&#x203a;" horiz-adv-x="395" 
d="M135 0l-53 50l181 194l-181 193l53 50l228 -244z" />
    <glyph glyph-name="fraction" unicode="&#x2044;" horiz-adv-x="445" 
d="M50 0h-50l396 666h49z" />
    <glyph glyph-name="Euro" unicode="&#x20ac;" horiz-adv-x="718" 
d="M643 543q-43 11 -77.5 15.5t-74.5 4.5q-95 0 -156 -38t-85 -102h179v-56h-193q-1 -8 -1.5 -16.5t-0.5 -17.5v-18t2 -18h193v-57h-178q25 -63 85.5 -100.5t154.5 -37.5q39 0 73.5 4.5t78.5 15.5l17 -104q-42 -14 -86 -21.5t-98 -7.5q-68 0 -126 19t-104.5 52.5t-79 79.5
t-47.5 100h-97v57h86q-1 9 -1.5 18t-0.5 18q0 8 0.5 17t1.5 17h-86v56h96q15 55 47.5 101t79 80t105 53t126.5 19q27 0 50.5 -1.5t45.5 -4.5t43.5 -8.5t45.5 -12.5z" />
    <glyph glyph-name="trademark" unicode="&#x2122;" horiz-adv-x="703" 
d="M606 362v201l-83 -149h-32l-85 149v-201h-55v304h54l101 -179l101 179h54v-304h-55zM187 615v-253h-59v253h-101v51h261v-51h-101z" />
    <glyph glyph-name="partialdiff" unicode="&#x2202;" horiz-adv-x="577" 
d="M488 372l-162 162v-488h-76v488l-161 -162l-52 52l251 252l252 -252z" />
    <glyph glyph-name="Delta" unicode="&#x2206;" horiz-adv-x="577" 
d="M288 -11l-251 252l52 52l161 -162v488h76v-488l161 162l53 -52z" />
    <glyph glyph-name="product" unicode="&#x220f;" horiz-adv-x="616" 
d="M219 74h228v-74h-355v356h73v-229l346 346l53 -54z" />
    <glyph glyph-name="summation" unicode="&#x2211;" horiz-adv-x="616" 
d="M219 74h228v-74h-355v356h73v-229l346 346l53 -54z" />
    <glyph glyph-name="minus" unicode="&#x2212;" horiz-adv-x="361" 
d="M47 228v102h267v-102h-267z" />
    <glyph glyph-name="radical" unicode="&#x221a;" horiz-adv-x="744" 
d="M183 279l162 -161l-52 -53l-251 252l251 251l52 -52l-162 -162h489v-75h-489z" />
    <glyph glyph-name="infinity" unicode="&#x221e;" horiz-adv-x="744" 
d="M183 279l162 -161l-52 -53l-251 252l251 251l52 -52l-162 -162h489v-75h-489z" />
    <glyph glyph-name="integral" unicode="&#x222b;" horiz-adv-x="616" 
d="M169 0v74h228l-345 345l53 54l345 -346v229h74v-356h-355z" />
    <glyph glyph-name="approxequal" unicode="&#x2248;" horiz-adv-x="615" 
d="M450 311v229l-346 -346l-52 53l345 345h-229v74h355v-355h-73z" />
    <glyph glyph-name="notequal" unicode="&#x2260;" horiz-adv-x="876" 
d="M453 333v-333h-333v666h666v-333h-333z" />
    <glyph glyph-name="lessequal" unicode="&#x2264;" horiz-adv-x="744" 
d="M183 279l162 -161l-52 -53l-251 252l251 251l52 -52l-162 -162h489v-75h-489z" />
    <glyph glyph-name="greaterequal" unicode="&#x2265;" horiz-adv-x="744" 
d="M450 65l-52 53l162 161h-488v75h488l-162 162l52 52l252 -251z" />
    <glyph glyph-name="lozenge" unicode="&#x25ca;" horiz-adv-x="744" 
d="M450 65l-52 53l162 161h-488v75h488l-162 162l52 52l252 -251z" />
    <glyph glyph-name="apple" unicode="&#xf8ff;" horiz-adv-x="876" 
d="M453 333v-333h-333v666h666v-333h-333z" />
    <glyph glyph-name="fi" unicode="&#xfb01;" horiz-adv-x="614" 
d="M339 590q-15 3 -29.5 4t-27.5 1q-35 0 -49.5 -16t-14.5 -52v-47h94v-83h-94v-397h-122v397h-66v83h66v43q0 88 42 128t118 40q47 0 97 -14zM422 0v487h122v-487h-122zM422 568v117h122v-117h-122z" />
    <glyph glyph-name="fl" unicode="&#xfb02;" horiz-adv-x="686" 
d="M339 590q-15 3 -29.5 4t-27.5 1q-35 0 -49.5 -16t-14.5 -52v-47h94v-83h-94v-397h-122v397h-66v83h66v43q0 88 42 128t118 40q47 0 97 -14zM648 -4q-4 -1 -13.5 -1.5l-19.5 -1l-19.5 -1t-13.5 -0.5q-34 0 -62.5 9t-49.5 28.5t-33 49.5t-12 72v515h122v-502q0 -42 12 -58
t45 -16h22.5t21.5 1v-95z" />
    </font>
</defs>
</svg>
